<svg width="32" height="32" viewBox="0 0 32 32" fill="none" xmlns="http://www.w3.org/2000/svg">
<g id="directions_car">
<mask id="mask0_4456_6353" style="mask-type:alpha" maskUnits="userSpaceOnUse" x="0" y="0" width="32" height="32">
<rect id="Bounding box" width="32" height="32" fill="#D9D9D9"/>
</mask>
<g mask="url(#mask0_4456_6353)">
<path id="directions_car_2" d="M7.48684 24.6667V26.3333C7.48684 26.6167 7.39106 26.8541 7.1995 27.0457C7.00773 27.2374 6.77017 27.3333 6.48684 27.3333H5.6665C5.38317 27.3333 5.14573 27.2374 4.95417 27.0457C4.76239 26.8541 4.6665 26.6167 4.6665 26.3333V16.1027L7.3895 8.33333C7.48884 8.02733 7.67095 7.78422 7.93584 7.60399C8.20073 7.42355 8.49562 7.33333 8.8205 7.33333H23.2305C23.5425 7.33333 23.8258 7.42499 24.0805 7.60833C24.3349 7.79166 24.5115 8.03333 24.6102 8.33333L27.3332 16.1027V26.3333C27.3332 26.6167 27.2373 26.8541 27.0455 27.0457C26.8539 27.2374 26.6165 27.3333 26.3332 27.3333H25.5128C25.2295 27.3333 24.9919 27.2374 24.8002 27.0457C24.6086 26.8541 24.5128 26.6167 24.5128 26.3333V24.6667H7.48684ZM7.47684 14.1027H24.5228L22.8408 9.33333H9.15884L7.47684 14.1027ZM9.9515 21.1283C10.4366 21.1283 10.8481 20.9584 11.1858 20.6187C11.5234 20.2791 11.6922 19.8668 11.6922 19.3817C11.6922 18.8966 11.5224 18.4851 11.1828 18.1473C10.8431 17.8098 10.4306 17.641 9.9455 17.641C9.46039 17.641 9.04906 17.8108 8.7115 18.1503C8.37373 18.4901 8.20484 18.9026 8.20484 19.3877C8.20484 19.8728 8.37473 20.2841 8.7145 20.6217C9.05406 20.9594 9.46639 21.1283 9.9515 21.1283ZM22.0542 21.1283C22.5393 21.1283 22.9506 20.9584 23.2882 20.6187C23.6259 20.2791 23.7948 19.8668 23.7948 19.3817C23.7948 18.8966 23.6249 18.4851 23.2852 18.1473C22.9456 17.8098 22.5333 17.641 22.0482 17.641C21.5631 17.641 21.1516 17.8108 20.8138 18.1503C20.4763 18.4901 20.3075 18.9026 20.3075 19.3877C20.3075 19.8728 20.4773 20.2841 20.8168 20.6217C21.1566 20.9594 21.5691 21.1283 22.0542 21.1283Z" fill="#024449"/>
</g>
</g>
</svg>
