<svg width="32" height="32" viewBox="0 0 32 32" fill="none" xmlns="http://www.w3.org/2000/svg">
<g id="local_shipping">
<mask id="mask0_4456_2203" style="mask-type:alpha" maskUnits="userSpaceOnUse" x="0" y="0" width="32" height="32">
<rect id="Bounding box" width="32" height="32" fill="#D9D9D9"/>
</mask>
<g mask="url(#mask0_4456_2203)">
<path id="local_shipping_2" d="M7.79192 26.077C6.75103 26.077 5.86737 25.713 5.14092 24.985C4.41448 24.257 4.05126 23.3731 4.05126 22.3333H1.79492V8.41033C1.79492 7.73678 2.02826 7.16667 2.49492 6.7C2.96159 6.23333 3.53159 6 4.20492 6H22.3589V11.077H25.8973L30.2049 16.8463V22.3333H27.7949C27.7949 23.3731 27.4306 24.257 26.7019 24.985C25.9735 25.713 25.0889 26.077 24.0483 26.077C23.0076 26.077 22.1239 25.713 21.3973 24.985C20.6708 24.257 20.3076 23.3731 20.3076 22.3333H11.5383C11.5383 23.376 11.174 24.2606 10.4456 24.987C9.71714 25.7137 8.83259 26.077 7.79192 26.077ZM7.79492 24.077C8.28381 24.077 8.69659 23.9086 9.03325 23.5717C9.36992 23.235 9.53825 22.8222 9.53825 22.3333C9.53825 21.8444 9.36992 21.4316 9.03325 21.0947C8.69659 20.758 8.28381 20.5897 7.79492 20.5897C7.30603 20.5897 6.89314 20.758 6.55625 21.0947C6.21959 21.4316 6.05125 21.8444 6.05125 22.3333C6.05125 22.8222 6.21959 23.235 6.55625 23.5717C6.89314 23.9086 7.30603 24.077 7.79492 24.077ZM24.0513 24.077C24.5401 24.077 24.9529 23.9086 25.2896 23.5717C25.6265 23.235 25.7949 22.8222 25.7949 22.3333C25.7949 21.8444 25.6265 21.4316 25.2896 21.0947C24.9529 20.758 24.5401 20.5897 24.0513 20.5897C23.5624 20.5897 23.1495 20.758 22.8126 21.0947C22.4759 21.4316 22.3076 21.8444 22.3076 22.3333C22.3076 22.8222 22.4759 23.235 22.8126 23.5717C23.1495 23.9086 23.5624 24.077 24.0513 24.077ZM22.3589 17.6667H28.3333L24.8716 13.077H22.3589V17.6667Z" fill="#1C96C5"/>
</g>
</g>
</svg>
