<svg width="32" height="32" viewBox="0 0 32 32" fill="none" xmlns="http://www.w3.org/2000/svg">
<g id="payments">
<mask id="mask0_4456_6430" style="mask-type:alpha" maskUnits="userSpaceOnUse" x="0" y="0" width="32" height="32">
<rect id="Bounding box" width="32" height="32" fill="#D9D9D9"/>
</mask>
<g mask="url(#mask0_4456_6430)">
<path id="payments_2" d="M4.87176 25.7437C4.20887 25.7437 3.64143 25.5077 3.16943 25.0357C2.69743 24.5637 2.46143 23.9962 2.46143 23.3333V10.1283H4.46143V23.3333C4.46143 23.4358 4.50409 23.5298 4.58943 23.6153C4.67498 23.7009 4.76909 23.7437 4.87176 23.7437H25.5638V25.7437H4.87176ZM9.53809 21.077C8.87543 21.077 8.30809 20.841 7.83609 20.369C7.36409 19.897 7.12809 19.3295 7.12809 18.6667V8.56399C7.12809 7.90132 7.36409 7.33399 7.83609 6.86199C8.30809 6.38999 8.87543 6.15399 9.53809 6.15399H27.1278C27.7906 6.15399 28.3581 6.38999 28.8301 6.86199C29.3021 7.33399 29.5381 7.90132 29.5381 8.56399V18.6667C29.5381 19.3295 29.3021 19.897 28.8301 20.369C28.3581 20.841 27.7906 21.077 27.1278 21.077H9.53809ZM11.5381 19.077C11.5381 18.4121 11.3021 17.8441 10.8301 17.373C10.3581 16.9021 9.79076 16.6667 9.12809 16.6667V18.6667C9.12809 18.7778 9.16865 18.8739 9.24976 18.955C9.33087 19.0363 9.42698 19.077 9.53809 19.077H11.5381ZM25.1281 19.077H27.1278C27.2389 19.077 27.3351 19.0363 27.4164 18.955C27.4975 18.8739 27.5381 18.7778 27.5381 18.6667V16.6667C26.8732 16.6667 26.3053 16.9027 25.8344 17.3747C25.3635 17.8467 25.1281 18.4141 25.1281 19.077ZM18.3331 16.9487C19.2646 16.9487 20.0531 16.626 20.6984 15.9807C21.3438 15.3353 21.6664 14.5469 21.6664 13.6153C21.6664 12.6838 21.3438 11.8953 20.6984 11.25C20.0531 10.6047 19.2646 10.282 18.3331 10.282C17.4015 10.282 16.6131 10.6047 15.9678 11.25C15.3224 11.8953 14.9998 12.6838 14.9998 13.6153C14.9998 14.5469 15.3224 15.3353 15.9678 15.9807C16.6131 16.626 17.4015 16.9487 18.3331 16.9487ZM9.12809 10.564C9.79298 10.564 10.3609 10.328 10.8318 9.85599C11.3026 9.38399 11.5381 8.81666 11.5381 8.15399H9.53809C9.42698 8.15399 9.33087 8.19455 9.24976 8.27566C9.16865 8.35677 9.12809 8.45288 9.12809 8.56399V10.564ZM27.5381 10.564V8.56399C27.5381 8.45288 27.4975 8.35677 27.4164 8.27566C27.3351 8.19455 27.2389 8.15399 27.1278 8.15399H25.1281C25.1281 8.81888 25.3641 9.38677 25.8361 9.85766C26.3081 10.3285 26.8754 10.564 27.5381 10.564Z" fill="#009900"/>
</g>
</g>
</svg>
