<svg width="20" height="20" viewBox="0 0 20 20" fill="none" xmlns="http://www.w3.org/2000/svg">
<g id="Style=Outlined">
<mask id="mask0_50_385" style="mask-type:alpha" maskUnits="userSpaceOnUse" x="0" y="0" width="20" height="20">
<rect id="Bounding box" width="20" height="20" fill="#D9D9D9"/>
</mask>
<g mask="url(#mask0_50_385)">
<path id="calendar_clock" d="M4.16667 7.33979H15.8333V5.25646C15.8333 5.19229 15.8066 5.13354 15.7531 5.08021C15.6998 5.02674 15.641 5 15.5769 5H4.42313C4.35896 5 4.30021 5.02674 4.24688 5.08021C4.1934 5.13354 4.16667 5.19229 4.16667 5.25646V7.33979ZM4.42313 17.9167C4.00215 17.9167 3.64583 17.7708 3.35417 17.4792C3.0625 17.1875 2.91667 16.8312 2.91667 16.4102V5.25646C2.91667 4.83549 3.0625 4.47917 3.35417 4.1875C3.64583 3.89583 4.00215 3.75 4.42313 3.75H5.57688V1.98729H6.85896V3.75H13.1731V1.98729H14.4231V3.75H15.5769C15.9978 3.75 16.3542 3.89583 16.6458 4.1875C16.9375 4.47917 17.0833 4.83549 17.0833 5.25646V9.80938C16.8835 9.72174 16.6794 9.6509 16.471 9.59687C16.2627 9.54299 16.0501 9.50056 15.8333 9.46958V8.58979H4.16667V16.4102C4.16667 16.4744 4.1934 16.5331 4.24688 16.5865C4.30021 16.6399 4.35896 16.6667 4.42313 16.6667H9.84146C9.91188 16.8974 9.99709 17.1156 10.0971 17.3212C10.1969 17.5269 10.3104 17.7254 10.4375 17.9167H4.42313ZM15.1602 18.75C14.1197 18.75 13.2345 18.3851 12.5048 17.6554C11.7751 16.9257 11.4102 16.0406 11.4102 15C11.4102 13.9594 11.7751 13.0743 12.5048 12.3446C13.2345 11.6149 14.1197 11.25 15.1602 11.25C16.2009 11.25 17.086 11.6149 17.8156 12.3446C18.5454 13.0743 18.9102 13.9594 18.9102 15C18.9102 16.0406 18.5454 16.9257 17.8156 17.6554C17.086 18.3851 16.2009 18.75 15.1602 18.75ZM16.5481 16.9071L17.0673 16.3879L15.529 14.8494V12.5481H14.7917V15.1506L16.5481 16.9071Z" fill="black"/>
</g>
</g>
</svg>
