<svg width="20" height="20" viewBox="0 0 20 20" fill="none" xmlns="http://www.w3.org/2000/svg">
<g id="State=off">
<mask id="mask0_36_49" style="mask-type:alpha" maskUnits="userSpaceOnUse" x="0" y="0" width="20" height="20">
<rect id="Bounding box" width="20" height="20" fill="#D9D9D9"/>
</mask>
<g mask="url(#mask0_36_49)">
<path id="calendar_month" d="M4.42313 17.9167C4.00216 17.9167 3.64584 17.7708 3.35417 17.4792C3.06251 17.1875 2.91667 16.8312 2.91667 16.4102V5.25646C2.91667 4.83549 3.06251 4.47917 3.35417 4.1875C3.64584 3.89583 4.00216 3.75 4.42313 3.75H5.57688V1.98729H6.85896V3.75H13.1731V1.98729H14.4231V3.75H15.5769C15.9979 3.75 16.3542 3.89583 16.6458 4.1875C16.9375 4.47917 17.0833 4.83549 17.0833 5.25646V16.4102C17.0833 16.8312 16.9375 17.1875 16.6458 17.4792C16.3542 17.7708 15.9979 17.9167 15.5769 17.9167H4.42313ZM4.42313 16.6667H15.5769C15.641 16.6667 15.6998 16.6399 15.7531 16.5865C15.8066 16.5331 15.8333 16.4744 15.8333 16.4102V8.58979H4.16667V16.4102C4.16667 16.4744 4.19341 16.5331 4.24688 16.5865C4.30021 16.6399 4.35896 16.6667 4.42313 16.6667ZM4.16667 7.33979H15.8333V5.25646C15.8333 5.19229 15.8066 5.13354 15.7531 5.08021C15.6998 5.02674 15.641 5 15.5769 5H4.42313C4.35896 5 4.30021 5.02674 4.24688 5.08021C4.19341 5.13354 4.16667 5.19229 4.16667 5.25646V7.33979ZM10 11.7308C9.79598 11.7308 9.62209 11.659 9.47834 11.5152C9.33473 11.3716 9.26292 11.1977 9.26292 10.9935C9.26292 10.7895 9.33473 10.6156 9.47834 10.4719C9.62209 10.3283 9.79598 10.2565 10 10.2565C10.204 10.2565 10.3779 10.3283 10.5217 10.4719C10.6653 10.6156 10.7371 10.7895 10.7371 10.9935C10.7371 11.1977 10.6653 11.3716 10.5217 11.5152C10.3779 11.659 10.204 11.7308 10 11.7308ZM6.66667 11.7308C6.46264 11.7308 6.28876 11.659 6.145 11.5152C6.00139 11.3716 5.92959 11.1977 5.92959 10.9935C5.92959 10.7895 6.00139 10.6156 6.145 10.4719C6.28876 10.3283 6.46264 10.2565 6.66667 10.2565C6.8707 10.2565 7.04459 10.3283 7.18834 10.4719C7.33195 10.6156 7.40376 10.7895 7.40376 10.9935C7.40376 11.1977 7.33195 11.3716 7.18834 11.5152C7.04459 11.659 6.8707 11.7308 6.66667 11.7308ZM13.3333 11.7308C13.1293 11.7308 12.9554 11.659 12.8117 11.5152C12.6681 11.3716 12.5963 11.1977 12.5963 10.9935C12.5963 10.7895 12.6681 10.6156 12.8117 10.4719C12.9554 10.3283 13.1293 10.2565 13.3333 10.2565C13.5374 10.2565 13.7113 10.3283 13.855 10.4719C13.9986 10.6156 14.0704 10.7895 14.0704 10.9935C14.0704 11.1977 13.9986 11.3716 13.855 11.5152C13.7113 11.659 13.5374 11.7308 13.3333 11.7308ZM10 15C9.79598 15 9.62209 14.9281 9.47834 14.7844C9.33473 14.6408 9.26292 14.4669 9.26292 14.2629C9.26292 14.0588 9.33473 13.8849 9.47834 13.7413C9.62209 13.5975 9.79598 13.5256 10 13.5256C10.204 13.5256 10.3779 13.5975 10.5217 13.7413C10.6653 13.8849 10.7371 14.0588 10.7371 14.2629C10.7371 14.4669 10.6653 14.6408 10.5217 14.7844C10.3779 14.9281 10.204 15 10 15ZM6.66667 15C6.46264 15 6.28876 14.9281 6.145 14.7844C6.00139 14.6408 5.92959 14.4669 5.92959 14.2629C5.92959 14.0588 6.00139 13.8849 6.145 13.7413C6.28876 13.5975 6.46264 13.5256 6.66667 13.5256C6.8707 13.5256 7.04459 13.5975 7.18834 13.7413C7.33195 13.8849 7.40376 14.0588 7.40376 14.2629C7.40376 14.4669 7.33195 14.6408 7.18834 14.7844C7.04459 14.9281 6.8707 15 6.66667 15ZM13.3333 15C13.1293 15 12.9554 14.9281 12.8117 14.7844C12.6681 14.6408 12.5963 14.4669 12.5963 14.2629C12.5963 14.0588 12.6681 13.8849 12.8117 13.7413C12.9554 13.5975 13.1293 13.5256 13.3333 13.5256C13.5374 13.5256 13.7113 13.5975 13.855 13.7413C13.9986 13.8849 14.0704 14.0588 14.0704 14.2629C14.0704 14.4669 13.9986 14.6408 13.855 14.7844C13.7113 14.9281 13.5374 15 13.3333 15Z" fill="black"/>
</g>
</g>
</svg>
