<svg width="20" height="20" viewBox="0 0 20 20" fill="none" xmlns="http://www.w3.org/2000/svg">
<g id="State=on">
<mask id="mask0_36_50" style="mask-type:alpha" maskUnits="userSpaceOnUse" x="0" y="0" width="20" height="20">
<rect id="Bounding box" width="20" height="20" fill="#D9D9D9"/>
</mask>
<g mask="url(#mask0_36_50)">
<path id="calendar_month" d="M9.99999 11.7308C9.79596 11.7308 9.62207 11.659 9.47832 11.5152C9.33471 11.3716 9.26291 11.1977 9.26291 10.9935C9.26291 10.7895 9.33471 10.6156 9.47832 10.4719C9.62207 10.3283 9.79596 10.2565 9.99999 10.2565C10.204 10.2565 10.3779 10.3283 10.5217 10.4719C10.6653 10.6156 10.7371 10.7895 10.7371 10.9935C10.7371 11.1977 10.6653 11.3716 10.5217 11.5152C10.3779 11.659 10.204 11.7308 9.99999 11.7308ZM6.66666 11.7308C6.46263 11.7308 6.28874 11.659 6.14499 11.5152C6.00138 11.3716 5.92957 11.1977 5.92957 10.9935C5.92957 10.7895 6.00138 10.6156 6.14499 10.4719C6.28874 10.3283 6.46263 10.2565 6.66666 10.2565C6.87068 10.2565 7.04457 10.3283 7.18832 10.4719C7.33193 10.6156 7.40374 10.7895 7.40374 10.9935C7.40374 11.1977 7.33193 11.3716 7.18832 11.5152C7.04457 11.659 6.87068 11.7308 6.66666 11.7308ZM13.3333 11.7308C13.1293 11.7308 12.9554 11.659 12.8117 11.5152C12.668 11.3716 12.5962 11.1977 12.5962 10.9935C12.5962 10.7895 12.668 10.6156 12.8117 10.4719C12.9554 10.3283 13.1293 10.2565 13.3333 10.2565C13.5374 10.2565 13.7112 10.3283 13.855 10.4719C13.9986 10.6156 14.0704 10.7895 14.0704 10.9935C14.0704 11.1977 13.9986 11.3716 13.855 11.5152C13.7112 11.659 13.5374 11.7308 13.3333 11.7308ZM9.99999 15C9.79596 15 9.62207 14.9281 9.47832 14.7844C9.33471 14.6408 9.26291 14.4669 9.26291 14.2629C9.26291 14.0588 9.33471 13.8849 9.47832 13.7413C9.62207 13.5975 9.79596 13.5256 9.99999 13.5256C10.204 13.5256 10.3779 13.5975 10.5217 13.7413C10.6653 13.8849 10.7371 14.0588 10.7371 14.2629C10.7371 14.4669 10.6653 14.6408 10.5217 14.7844C10.3779 14.9281 10.204 15 9.99999 15ZM6.66666 15C6.46263 15 6.28874 14.9281 6.14499 14.7844C6.00138 14.6408 5.92957 14.4669 5.92957 14.2629C5.92957 14.0588 6.00138 13.8849 6.14499 13.7413C6.28874 13.5975 6.46263 13.5256 6.66666 13.5256C6.87068 13.5256 7.04457 13.5975 7.18832 13.7413C7.33193 13.8849 7.40374 14.0588 7.40374 14.2629C7.40374 14.4669 7.33193 14.6408 7.18832 14.7844C7.04457 14.9281 6.87068 15 6.66666 15ZM13.3333 15C13.1293 15 12.9554 14.9281 12.8117 14.7844C12.668 14.6408 12.5962 14.4669 12.5962 14.2629C12.5962 14.0588 12.668 13.8849 12.8117 13.7413C12.9554 13.5975 13.1293 13.5256 13.3333 13.5256C13.5374 13.5256 13.7112 13.5975 13.855 13.7413C13.9986 13.8849 14.0704 14.0588 14.0704 14.2629C14.0704 14.4669 13.9986 14.6408 13.855 14.7844C13.7112 14.9281 13.5374 15 13.3333 15ZM4.42311 17.9167C4.00214 17.9167 3.64582 17.7708 3.35416 17.4792C3.06249 17.1875 2.91666 16.8312 2.91666 16.4102V5.25646C2.91666 4.83549 3.06249 4.47917 3.35416 4.1875C3.64582 3.89583 4.00214 3.75 4.42311 3.75H5.57686V1.98729H6.85895V3.75H13.1731V1.98729H14.4231V3.75H15.5769C15.9978 3.75 16.3542 3.89583 16.6458 4.1875C16.9375 4.47917 17.0833 4.83549 17.0833 5.25646V16.4102C17.0833 16.8312 16.9375 17.1875 16.6458 17.4792C16.3542 17.7708 15.9978 17.9167 15.5769 17.9167H4.42311ZM4.42311 16.6667H15.5769C15.641 16.6667 15.6998 16.6399 15.7531 16.5865C15.8066 16.5331 15.8333 16.4744 15.8333 16.4102V8.58979H4.16666V16.4102C4.16666 16.4744 4.19339 16.5331 4.24687 16.5865C4.3002 16.6399 4.35895 16.6667 4.42311 16.6667Z" fill="black"/>
</g>
</g>
</svg>
