<svg width="20" height="20" viewBox="0 0 20 20" fill="none" xmlns="http://www.w3.org/2000/svg">
<g id="Style=Outlined">
<mask id="mask0_153_80" style="mask-type:alpha" maskUnits="userSpaceOnUse" x="0" y="0" width="20" height="20">
<rect id="Bounding box" width="20" height="20" fill="#D9D9D9"/>
</mask>
<g mask="url(#mask0_153_80)">
<path id="cancel" d="M7.00004 13.8781L10 10.8781L13 13.8781L13.8782 13L10.8782 9.99999L13.8782 6.99999L13 6.12186L10 9.12186L7.00004 6.12186L6.12192 6.99999L9.12192 9.99999L6.12192 13L7.00004 13.8781ZM10.0015 17.9167C8.9065 17.9167 7.87726 17.7089 6.91379 17.2933C5.95032 16.8778 5.11226 16.3138 4.39962 15.6014C3.68699 14.8891 3.12275 14.0514 2.70692 13.0883C2.29122 12.1253 2.08337 11.0963 2.08337 10.0014C2.08337 8.90644 2.29115 7.87721 2.70671 6.91374C3.12226 5.95026 3.68622 5.11221 4.39858 4.39957C5.11094 3.68693 5.94865 3.12269 6.91171 2.70686C7.87476 2.29117 8.90372 2.08332 9.99858 2.08332C11.0936 2.08332 12.1228 2.2911 13.0863 2.70665C14.0498 3.12221 14.8878 3.68617 15.6005 4.39853C16.3131 5.11089 16.8773 5.9486 17.2932 6.91165C17.7089 7.87471 17.9167 8.90367 17.9167 9.99853C17.9167 11.0935 17.7089 12.1228 17.2934 13.0862C16.8778 14.0497 16.3139 14.8878 15.6015 15.6004C14.8891 16.313 14.0514 16.8773 13.0884 17.2931C12.1253 17.7088 11.0964 17.9167 10.0015 17.9167ZM10 16.6667C11.8612 16.6667 13.4375 16.0208 14.7292 14.7292C16.0209 13.4375 16.6667 11.8611 16.6667 9.99999C16.6667 8.13888 16.0209 6.56249 14.7292 5.27082C13.4375 3.97915 11.8612 3.33332 10 3.33332C8.13893 3.33332 6.56254 3.97915 5.27087 5.27082C3.97921 6.56249 3.33337 8.13888 3.33337 9.99999C3.33337 11.8611 3.97921 13.4375 5.27087 14.7292C6.56254 16.0208 8.13893 16.6667 10 16.6667Z" fill="black"/>
</g>
</g>
</svg>
