<svg width="20" height="20" viewBox="0 0 20 20" fill="none" xmlns="http://www.w3.org/2000/svg">
<g id="cancel">
<mask id="mask0_3369_2221" style="mask-type:alpha" maskUnits="userSpaceOnUse" x="0" y="0" width="20" height="20">
<rect id="Bounding box" width="20" height="20" fill="#D9D9D9"/>
</mask>
<g mask="url(#mask0_3369_2221)">
<path id="cancel_2" d="M7.00001 13.8782L10 10.8782L13 13.8782L13.8781 13L10.8781 10L13.8781 7.00004L13 6.12192L10 9.12192L7.00001 6.12192L6.12189 7.00004L9.12188 10L6.12189 13L7.00001 13.8782ZM10.0015 17.9167C8.90647 17.9167 7.87723 17.7089 6.91376 17.2934C5.95029 16.8778 5.11223 16.3139 4.39959 15.6015C3.68695 14.8891 3.12272 14.0514 2.70689 13.0884C2.29119 12.1253 2.08334 11.0964 2.08334 10.0015C2.08334 8.9065 2.29112 7.87726 2.70668 6.91379C3.12223 5.95032 3.68619 5.11226 4.39855 4.39962C5.11091 3.68698 5.94862 3.12275 6.91168 2.70692C7.87473 2.29122 8.90369 2.08337 9.99855 2.08337C11.0936 2.08337 12.1228 2.29115 13.0863 2.70671C14.0497 3.12226 14.8878 3.68622 15.6004 4.39858C16.3131 5.11094 16.8773 5.94865 17.2931 6.91171C17.7088 7.87476 17.9167 8.90372 17.9167 9.99858C17.9167 11.0936 17.7089 12.1228 17.2933 13.0863C16.8778 14.0498 16.3138 14.8878 15.6015 15.6005C14.8891 16.3131 14.0514 16.8773 13.0883 17.2932C12.1253 17.7089 11.0963 17.9167 10.0015 17.9167Z" fill="#808080"/>
</g>
</g>
</svg>
