<svg width="20" height="20" viewBox="0 0 20 20" fill="none" xmlns="http://www.w3.org/2000/svg">
<g id="Style=Filled">
<mask id="mask0_46_377" style="mask-type:alpha" maskUnits="userSpaceOnUse" x="0" y="0" width="20" height="20">
<rect id="Bounding box" width="20" height="20" fill="#D9D9D9"/>
</mask>
<g mask="url(#mask0_46_377)">
<path id="cancel" d="M7.00001 13.8781L10 10.8781L13 13.8781L13.8781 13L10.8781 10L13.8781 7L13 6.12188L10 9.12188L7.00001 6.12188L6.12189 7L9.12188 10L6.12189 13L7.00001 13.8781ZM10.0015 17.9167C8.90647 17.9167 7.87723 17.7089 6.91376 17.2933C5.95029 16.8778 5.11223 16.3138 4.39959 15.6015C3.68695 14.8891 3.12272 14.0514 2.70689 13.0883C2.29119 12.1253 2.08334 11.0963 2.08334 10.0015C2.08334 8.90646 2.29112 7.87722 2.70668 6.91375C3.12223 5.95028 3.68619 5.11222 4.39855 4.39958C5.11091 3.68694 5.94862 3.12271 6.91168 2.70688C7.87473 2.29118 8.90369 2.08333 9.99855 2.08333C11.0936 2.08333 12.1228 2.29111 13.0863 2.70667C14.0497 3.12222 14.8878 3.68618 15.6004 4.39854C16.3131 5.1109 16.8773 5.94861 17.2931 6.91167C17.7088 7.87472 17.9167 8.90368 17.9167 9.99854C17.9167 11.0935 17.7089 12.1228 17.2933 13.0863C16.8778 14.0497 16.3138 14.8878 15.6015 15.6004C14.8891 16.3131 14.0514 16.8773 13.0883 17.2931C12.1253 17.7088 11.0963 17.9167 10.0015 17.9167Z" fill="black"/>
</g>
</g>
</svg>
