<svg width="16" height="16" viewBox="0 0 16 16" fill="none" xmlns="http://www.w3.org/2000/svg">
<g id="carry_on_bag">
<mask id="mask0_4606_8586" style="mask-type:alpha" maskUnits="userSpaceOnUse" x="0" y="0" width="16" height="16">
<rect id="Bounding box" width="16" height="16" fill="#D9D9D9"/>
</mask>
<g mask="url(#mask0_4606_8586)">
<path id="carry_on_bag_2" d="M10.3327 14.1793C10.0511 14.1793 9.81205 14.0808 9.6155 13.8837C9.41894 13.6866 9.32066 13.4472 9.32066 13.1657C9.32066 12.8841 9.41922 12.6451 9.61633 12.4485C9.81333 12.2519 10.0526 12.1537 10.3342 12.1537C10.6157 12.1537 10.8548 12.2522 11.0515 12.4493C11.2481 12.6464 11.3463 12.8857 11.3463 13.1672C11.3463 13.4487 11.2478 13.6878 11.0507 13.8845C10.8536 14.0811 10.6142 14.1793 10.3327 14.1793ZM5.53866 13.6665C5.20722 13.6665 4.9235 13.5485 4.6875 13.3125C4.4515 13.0765 4.3335 12.7928 4.3335 12.4613V6.205C4.3335 5.87356 4.4515 5.58984 4.6875 5.35384C4.9235 5.11784 5.20722 4.99984 5.53866 4.99984H6.16683V13.6665H5.53866ZM6.96166 13.6665V4.99984H9.3335V2.6665H9.12833C8.85566 2.6665 8.62083 2.568 8.42383 2.371C8.22683 2.174 8.12833 1.93917 8.12833 1.6665H10.3335V11.3588C9.82916 11.3588 9.40183 11.5346 9.0515 11.886C8.70105 12.2376 8.52583 12.6644 8.52583 13.1665C8.52583 13.2574 8.53094 13.3421 8.54116 13.4205C8.55138 13.4991 8.57233 13.5811 8.604 13.6665H6.96166Z" fill="#C68E47"/>
</g>
</g>
</svg>
