<svg width="20" height="20" viewBox="0 0 20 20" fill="none" xmlns="http://www.w3.org/2000/svg">
<g id="chat-outline">
<path id="Vector" d="M10 2.5C5.41667 2.5 1.66667 5.48333 1.66667 9.16667C1.70834 10.9583 2.55001 12.6417 3.95834 13.75C3.95834 14.25 3.60834 15.5583 1.66667 17.5C3.64167 17.4083 5.53334 16.6667 7.05834 15.4167C8.00834 15.6917 9.00834 15.8333 10 15.8333C14.5833 15.8333 18.3333 12.85 18.3333 9.16667C18.3333 5.48333 14.5833 2.5 10 2.5ZM10 14.1667C6.31667 14.1667 3.33334 11.925 3.33334 9.16667C3.33334 6.40833 6.31667 4.16667 10 4.16667C13.6833 4.16667 16.6667 6.40833 16.6667 9.16667C16.6667 11.925 13.6833 14.1667 10 14.1667Z" fill="black"/>
</g>
</svg>
