<svg width="22" height="22" viewBox="0 0 22 22" fill="none" xmlns="http://www.w3.org/2000/svg">
<g id="checked_bag">
<mask id="mask0_3200_363" style="mask-type:alpha" maskUnits="userSpaceOnUse" x="0" y="0" width="22" height="22">
<rect id="Bounding box" width="22" height="22" fill="#D9D9D9"/>
</mask>
<g mask="url(#mask0_3200_363)">
<path id="checked_bag_2" d="M7.65061 15.3012V5.95831H8.53198C8.53198 5.27677 8.77291 4.69507 9.25477 4.21321C9.73664 3.73135 10.3183 3.49042 10.9999 3.49042C11.6814 3.49042 12.2631 3.73135 12.745 4.21321C13.2268 4.69507 13.4678 5.27677 13.4678 5.95831H14.3492V15.3012H7.65061ZM9.62488 5.95831H12.3749C12.3749 5.56109 12.245 5.23262 11.9853 4.9729C11.7256 4.71317 11.3971 4.58331 10.9999 4.58331C10.6027 4.58331 10.2742 4.71317 10.0145 4.9729C9.75474 5.23262 9.62488 5.56109 9.62488 5.95831ZM15.4423 15.3012V5.95831H16.2178C16.6808 5.95831 17.0728 6.11873 17.3936 6.43956C17.7145 6.7604 17.8749 7.15235 17.8749 7.61542V13.6441C17.8749 14.1072 17.7145 14.4991 17.3936 14.82C17.0728 15.1408 16.6808 15.3012 16.2178 15.3012H15.4423ZM5.78198 15.3012C5.31891 15.3012 4.92696 15.1408 4.60613 14.82C4.28529 14.4991 4.12488 14.1072 4.12488 13.6441V7.61542C4.12488 7.15235 4.28529 6.7604 4.60613 6.43956C4.92696 6.11873 5.31891 5.95831 5.78198 5.95831H6.55748V15.3012H5.78198ZM2.46777 18.5095V17.1345H19.532V18.5095H2.46777Z" fill="white"/>
</g>
</g>
</svg>
