<svg width="20" height="20" viewBox="0 0 20 20" fill="none" xmlns="http://www.w3.org/2000/svg">
<g id="State=Checked, Style=Filled">
<mask id="mask0_25_81" style="mask-type:alpha" maskUnits="userSpaceOnUse" x="0" y="0" width="20" height="20">
<rect id="Bounding box" width="20" height="20" fill="#D9D9D9"/>
</mask>
<g mask="url(#mask0_25_81)">
<path id="check_circle" d="M8.81729 13.5448L14.4198 7.94229L13.5417 7.06417L8.81729 11.7885L6.44229 9.41354L5.56416 10.2917L8.81729 13.5448ZM10.0015 17.9167C8.90645 17.9167 7.87722 17.7089 6.91374 17.2933C5.95027 16.8778 5.11222 16.3138 4.39958 15.6015C3.68694 14.8891 3.1227 14.0514 2.70687 13.0883C2.29118 12.1253 2.08333 11.0963 2.08333 10.0015C2.08333 8.90646 2.29111 7.87722 2.70666 6.91375C3.12222 5.95028 3.68618 5.11222 4.39854 4.39959C5.1109 3.68695 5.94861 3.12271 6.91166 2.70688C7.87472 2.29118 8.90368 2.08334 9.99854 2.08334C11.0935 2.08334 12.1228 2.29111 13.0862 2.70667C14.0497 3.12222 14.8878 3.68618 15.6004 4.39854C16.3131 5.11091 16.8773 5.94861 17.2931 6.91167C17.7088 7.87472 17.9167 8.90368 17.9167 9.99854C17.9167 11.0935 17.7089 12.1228 17.2933 13.0863C16.8778 14.0497 16.3138 14.8878 15.6015 15.6004C14.8891 16.3131 14.0514 16.8773 13.0883 17.2931C12.1253 17.7088 11.0963 17.9167 10.0015 17.9167Z" fill="black"/>
</g>
</g>
</svg>
