<svg width="24" height="25" viewBox="0 0 24 25" fill="none" xmlns="http://www.w3.org/2000/svg">
<g id="church">
<mask id="mask0_5787_5985" style="mask-type:alpha" maskUnits="userSpaceOnUse" x="0" y="0" width="24" height="25">
<rect id="Bounding box" y="0.213074" width="24" height="24" fill="#D9D9D9"/>
</mask>
<g mask="url(#mask0_5787_5985)">
<path id="church_2" d="M2.25 21.9631V14.3286L6.25 12.5536V9.29008L11.25 6.78033V4.88608H9.25V3.38608H11.25V1.38608H12.75V3.38608H14.75V4.88608H12.75V6.78033L17.75 9.29008V12.5536L21.75 14.3286V21.9631H13.8652V18.7901C13.8652 18.2771 13.6828 17.8379 13.3178 17.4726C12.9528 17.1072 12.514 16.9246 12.0015 16.9246C11.489 16.9246 11.0498 17.1072 10.6838 17.4726C10.3178 17.8379 10.1348 18.2771 10.1348 18.7901V21.9631H2.25ZM12.0022 13.5208C12.3661 13.5208 12.6746 13.3934 12.9277 13.1386C13.1811 12.8839 13.3077 12.5747 13.3077 12.2108C13.3077 11.847 13.1803 11.5385 12.9255 11.2853C12.6708 11.032 12.3616 10.9053 11.9978 10.9053C11.6339 10.9053 11.3254 11.0327 11.0723 11.2876C10.8189 11.5422 10.6923 11.8515 10.6923 12.2153C10.6923 12.5792 10.8197 12.8877 11.0745 13.1408C11.3292 13.3942 11.6384 13.5208 12.0022 13.5208Z" fill="#024449"/>
</g>
</g>
</svg>
