<svg width="20" height="20" viewBox="0 0 20 20" fill="none" xmlns="http://www.w3.org/2000/svg">
<g id="Style=Filled">
<mask id="mask0_50_419" style="mask-type:alpha" maskUnits="userSpaceOnUse" x="0" y="0" width="20" height="20">
<rect id="Bounding box" width="20" height="20" fill="#D9D9D9"/>
</mask>
<g mask="url(#mask0_50_419)">
<path id="account_circle" d="M5.01917 14.4102C5.7275 13.8846 6.49917 13.4696 7.33417 13.165C8.16903 12.8606 9.05764 12.7083 10 12.7083C10.9424 12.7083 11.831 12.8606 12.6658 13.165C13.5008 13.4696 14.2725 13.8846 14.9808 14.4102C15.4989 13.8408 15.9094 13.1816 16.2123 12.4327C16.5152 11.6838 16.6667 10.8729 16.6667 9.99999C16.6667 8.15277 16.0174 6.57986 14.7188 5.28124C13.4201 3.98263 11.8472 3.33333 10 3.33333C8.15278 3.33333 6.57986 3.98263 5.28125 5.28124C3.98264 6.57986 3.33334 8.15277 3.33334 9.99999C3.33334 10.8729 3.48479 11.6838 3.78771 12.4327C4.09063 13.1816 4.50111 13.8408 5.01917 14.4102ZM10 10.625C9.23931 10.625 8.59778 10.3637 8.07542 9.84125C7.55292 9.31888 7.29167 8.67736 7.29167 7.91666C7.29167 7.15597 7.55292 6.51444 8.07542 5.99208C8.59778 5.46958 9.23931 5.20833 10 5.20833C10.7607 5.20833 11.4022 5.46958 11.9246 5.99208C12.4471 6.51444 12.7083 7.15597 12.7083 7.91666C12.7083 8.67736 12.4471 9.31888 11.9246 9.84125C11.4022 10.3637 10.7607 10.625 10 10.625ZM10 17.9167C8.9007 17.9167 7.86945 17.7099 6.90625 17.2965C5.94306 16.883 5.10521 16.3199 4.39271 15.6073C3.68007 14.8948 3.11702 14.0569 2.70354 13.0937C2.29007 12.1306 2.08334 11.0993 2.08334 9.99999C2.08334 8.90069 2.29007 7.86944 2.70354 6.90624C3.11702 5.94305 3.68007 5.1052 4.39271 4.3927C5.10521 3.68006 5.94306 3.11701 6.90625 2.70354C7.86945 2.29006 8.9007 2.08333 10 2.08333C11.0993 2.08333 12.1306 2.29006 13.0938 2.70354C14.0569 3.11701 14.8948 3.68006 15.6073 4.3927C16.3199 5.1052 16.883 5.94305 17.2965 6.90624C17.7099 7.86944 17.9167 8.90069 17.9167 9.99999C17.9167 11.0993 17.7099 12.1306 17.2965 13.0937C16.883 14.0569 16.3199 14.8948 15.6073 15.6073C14.8948 16.3199 14.0569 16.883 13.0938 17.2965C12.1306 17.7099 11.0993 17.9167 10 17.9167Z" fill="black"/>
</g>
</g>
</svg>
