<svg width="20" height="20" viewBox="0 0 20 20" fill="none" xmlns="http://www.w3.org/2000/svg">
<g id="Style=Outlined">
<mask id="mask0_50_418" style="mask-type:alpha" maskUnits="userSpaceOnUse" x="0" y="0" width="20" height="20">
<rect id="Bounding box" width="20" height="20" fill="#D9D9D9"/>
</mask>
<g mask="url(#mask0_50_418)">
<path id="account_circle" d="M5.01916 14.4102C5.72749 13.8846 6.49916 13.4696 7.33416 13.165C8.16902 12.8606 9.05763 12.7083 9.99999 12.7083C10.9424 12.7083 11.831 12.8606 12.6658 13.165C13.5008 13.4696 14.2725 13.8846 14.9808 14.4102C15.4989 13.8408 15.9094 13.1816 16.2123 12.4327C16.5152 11.6838 16.6667 10.8729 16.6667 9.99999C16.6667 8.15277 16.0174 6.57986 14.7187 5.28124C13.4201 3.98263 11.8472 3.33333 9.99999 3.33333C8.15277 3.33333 6.57986 3.98263 5.28124 5.28124C3.98263 6.57986 3.33333 8.15277 3.33333 9.99999C3.33333 10.8729 3.48479 11.6838 3.7877 12.4327C4.09062 13.1816 4.50111 13.8408 5.01916 14.4102ZM10.0002 10.625C9.23937 10.625 8.59777 10.3639 8.07541 9.84166C7.55291 9.3193 7.29166 8.6777 7.29166 7.91687C7.29166 7.15604 7.55277 6.51444 8.075 5.99208C8.59736 5.46958 9.23895 5.20833 9.99979 5.20833C10.7606 5.20833 11.4022 5.46944 11.9246 5.99166C12.4471 6.51402 12.7083 7.15562 12.7083 7.91645C12.7083 8.67729 12.4472 9.31888 11.925 9.84125C11.4026 10.3637 10.761 10.625 10.0002 10.625ZM9.99999 17.9167C8.90069 17.9167 7.86944 17.7099 6.90624 17.2965C5.94305 16.883 5.1052 16.3199 4.3927 15.6073C3.68006 14.8948 3.11701 14.0569 2.70354 13.0937C2.29006 12.1306 2.08333 11.0993 2.08333 9.99999C2.08333 8.90069 2.29006 7.86944 2.70354 6.90624C3.11701 5.94305 3.68006 5.1052 4.3927 4.3927C5.1052 3.68006 5.94305 3.11701 6.90624 2.70354C7.86944 2.29006 8.90069 2.08333 9.99999 2.08333C11.0993 2.08333 12.1306 2.29006 13.0937 2.70354C14.0569 3.11701 14.8948 3.68006 15.6073 4.3927C16.3199 5.1052 16.883 5.94305 17.2965 6.90624C17.7099 7.86944 17.9167 8.90069 17.9167 9.99999C17.9167 11.0993 17.7099 12.1306 17.2965 13.0937C16.883 14.0569 16.3199 14.8948 15.6073 15.6073C14.8948 16.3199 14.0569 16.883 13.0937 17.2965C12.1306 17.7099 11.0993 17.9167 9.99999 17.9167ZM9.99999 16.6667C10.7521 16.6667 11.4772 16.5457 12.1754 16.3037C12.8736 16.0617 13.4935 15.7233 14.0352 15.2885C13.4935 14.8696 12.8817 14.5433 12.1996 14.3094C11.5174 14.0753 10.7842 13.9583 9.99999 13.9583C9.21583 13.9583 8.48131 14.074 7.79645 14.3052C7.11159 14.5366 6.50104 14.8644 5.96479 15.2885C6.50645 15.7233 7.12638 16.0617 7.82458 16.3037C8.52277 16.5457 9.24791 16.6667 9.99999 16.6667ZM9.99999 9.37499C10.4146 9.37499 10.7612 9.23555 11.04 8.95666C11.3189 8.67791 11.4583 8.33124 11.4583 7.91666C11.4583 7.50208 11.3189 7.15541 11.04 6.87666C10.7612 6.59777 10.4146 6.45833 9.99999 6.45833C9.58541 6.45833 9.23874 6.59777 8.95999 6.87666C8.68111 7.15541 8.54166 7.50208 8.54166 7.91666C8.54166 8.33124 8.68111 8.67791 8.95999 8.95666C9.23874 9.23555 9.58541 9.37499 9.99999 9.37499Z" fill="black"/>
</g>
</g>
</svg>
