<svg width="20" height="20" viewBox="0 0 20 20" fill="none" xmlns="http://www.w3.org/2000/svg">
<g id="credit_card">
<mask id="mask0_169_450" style="mask-type:alpha" maskUnits="userSpaceOnUse" x="0" y="0" width="20" height="20">
<rect id="Bounding box" width="20" height="20" fill="#D9D9D9"/>
</mask>
<g mask="url(#mask0_169_450)">
<path id="credit_card_2" d="M17.9167 5.25646V14.7435C17.9167 15.1645 17.7708 15.5208 17.4792 15.8125C17.1875 16.1042 16.8312 16.25 16.4102 16.25H3.58979C3.16882 16.25 2.8125 16.1042 2.52083 15.8125C2.22917 15.5208 2.08333 15.1645 2.08333 14.7435V5.25646C2.08333 4.83549 2.22917 4.47917 2.52083 4.1875C2.8125 3.89583 3.16882 3.75 3.58979 3.75H16.4102C16.8312 3.75 17.1875 3.89583 17.4792 4.1875C17.7708 4.47917 17.9167 4.83549 17.9167 5.25646ZM3.33333 7.00333H16.6667V5.25646C16.6667 5.19229 16.6399 5.13354 16.5865 5.08021C16.5331 5.02674 16.4744 5 16.4102 5H3.58979C3.52562 5 3.46687 5.02674 3.41354 5.08021C3.36007 5.13354 3.33333 5.19229 3.33333 5.25646V7.00333ZM3.33333 9.66333V14.7435C3.33333 14.8077 3.36007 14.8665 3.41354 14.9198C3.46687 14.9733 3.52562 15 3.58979 15H16.4102C16.4744 15 16.5331 14.9733 16.5865 14.9198C16.6399 14.8665 16.6667 14.8077 16.6667 14.7435V9.66333H3.33333Z" fill="black"/>
</g>
</g>
</svg>
