<svg width="22" height="22" viewBox="0 0 22 22" fill="none" xmlns="http://www.w3.org/2000/svg">
<g id="directions_car">
<mask id="mask0_4058_8238" style="mask-type:alpha" maskUnits="userSpaceOnUse" x="0" y="0" width="22" height="22">
<rect id="Bounding box" width="22" height="22" fill="#D9D9D9"/>
</mask>
<g mask="url(#mask0_4058_8238)">
<path id="directions_car_2" d="M5.14748 16.9584V18.1042C5.14748 18.299 5.08163 18.4623 4.94993 18.594C4.81809 18.7258 4.65477 18.7917 4.45998 18.7917H3.896C3.7012 18.7917 3.53796 18.7258 3.40627 18.594C3.27442 18.4623 3.2085 18.299 3.2085 18.1042V11.0707L5.08056 5.72925C5.14885 5.51887 5.27405 5.35173 5.45616 5.22783C5.63827 5.10378 5.84101 5.04175 6.06437 5.04175H15.9712C16.1857 5.04175 16.3805 5.10477 16.5556 5.23081C16.7306 5.35685 16.8519 5.523 16.9198 5.72925L18.7918 11.0707V18.1042C18.7918 18.299 18.7259 18.4623 18.5941 18.594C18.4624 18.7258 18.2991 18.7917 18.1043 18.7917H17.5404C17.3456 18.7917 17.1822 18.7258 17.0504 18.594C16.9187 18.4623 16.8529 18.299 16.8529 18.1042V16.9584H5.14748ZM5.1406 9.69567H16.8597L15.7034 6.41675H6.29698L5.1406 9.69567ZM6.84193 14.5258C7.17545 14.5258 7.45832 14.409 7.69054 14.1754C7.92261 13.942 8.03864 13.6585 8.03864 13.325C8.03864 12.9915 7.92192 12.7086 7.68848 12.4764C7.45488 12.2443 7.17132 12.1283 6.83781 12.1283C6.50429 12.1283 6.2215 12.245 5.98943 12.4784C5.75721 12.712 5.6411 12.9956 5.6411 13.3291C5.6411 13.6626 5.7579 13.9454 5.9915 14.1775C6.22494 14.4097 6.50842 14.5258 6.84193 14.5258ZM15.1625 14.5258C15.496 14.5258 15.7788 14.409 16.0109 14.1754C16.2431 13.942 16.3592 13.6585 16.3592 13.325C16.3592 12.9915 16.2424 12.7086 16.0088 12.4764C15.7754 12.2443 15.4919 12.1283 15.1584 12.1283C14.8249 12.1283 14.542 12.245 14.3098 12.4784C14.0777 12.712 13.9617 12.9956 13.9617 13.3291C13.9617 13.6626 14.0784 13.9454 14.3119 14.1775C14.5454 14.4097 14.829 14.5258 15.1625 14.5258Z" fill="white"/>
</g>
</g>
</svg>
