<svg width="22" height="22" viewBox="0 0 22 22" fill="none" xmlns="http://www.w3.org/2000/svg">
<g id="directions_car">
<mask id="mask0_3200_2477" style="mask-type:alpha" maskUnits="userSpaceOnUse" x="0" y="0" width="22" height="22">
<rect id="Bounding box" width="22" height="22" fill="#D9D9D9"/>
</mask>
<g mask="url(#mask0_3200_2477)">
<path id="directions_car_2" d="M5.14748 16.9583V18.1042C5.14748 18.2989 5.08163 18.4622 4.94993 18.5939C4.81809 18.7257 4.65477 18.7917 4.45998 18.7917H3.896C3.7012 18.7917 3.53796 18.7257 3.40627 18.5939C3.27442 18.4622 3.2085 18.2989 3.2085 18.1042V11.0706L5.08056 5.72916C5.14885 5.51878 5.27405 5.35164 5.45616 5.22774C5.63827 5.10368 5.84101 5.04166 6.06437 5.04166H15.9712C16.1857 5.04166 16.3805 5.10468 16.5556 5.23072C16.7306 5.35676 16.8519 5.52291 16.9198 5.72916L18.7918 11.0706V18.1042C18.7918 18.2989 18.7259 18.4622 18.5941 18.5939C18.4624 18.7257 18.2991 18.7917 18.1043 18.7917H17.5404C17.3456 18.7917 17.1822 18.7257 17.0504 18.5939C16.9187 18.4622 16.8529 18.2989 16.8529 18.1042V16.9583H5.14748ZM5.1406 9.69557H16.8597L15.7034 6.41666H6.29698L5.1406 9.69557ZM6.84193 14.5257C7.17545 14.5257 7.45832 14.4089 7.69054 14.1753C7.92261 13.9419 8.03864 13.6584 8.03864 13.3249C8.03864 12.9914 7.92192 12.7085 7.68848 12.4763C7.45488 12.2442 7.17132 12.1282 6.83781 12.1282C6.50429 12.1282 6.2215 12.2449 5.98943 12.4783C5.75721 12.7119 5.6411 12.9955 5.6411 13.329C5.6411 13.6625 5.7579 13.9453 5.9915 14.1774C6.22494 14.4096 6.50842 14.5257 6.84193 14.5257ZM15.1625 14.5257C15.496 14.5257 15.7788 14.4089 16.0109 14.1753C16.2431 13.9419 16.3592 13.6584 16.3592 13.3249C16.3592 12.9914 16.2424 12.7085 16.0088 12.4763C15.7754 12.2442 15.4919 12.1282 15.1584 12.1282C14.8249 12.1282 14.542 12.2449 14.3098 12.4783C14.0777 12.7119 13.9617 12.9955 13.9617 13.329C13.9617 13.6625 14.0784 13.9453 14.3119 14.1774C14.5454 14.4096 14.829 14.5257 15.1625 14.5257Z" fill="white"/>
</g>
</g>
</svg>
