<svg width="20" height="20" viewBox="0 0 20 20" fill="none" xmlns="http://www.w3.org/2000/svg">
<g id="Style=Filled">
<mask id="mask0_50_358" style="mask-type:alpha" maskUnits="userSpaceOnUse" x="0" y="0" width="20" height="20">
<rect id="Bounding box" width="20" height="20" fill="#D9D9D9"/>
</mask>
<g mask="url(#mask0_50_358)">
<path id="explore" d="M5.68916 14.3108L11.4423 11.4423L14.3108 5.68916L8.5577 8.5577L5.68916 14.3108ZM9.99999 10.8333C9.76388 10.8333 9.56597 10.7535 9.40625 10.5937C9.24652 10.434 9.16666 10.2361 9.16666 9.99999C9.16666 9.76388 9.24652 9.56597 9.40625 9.40625C9.56597 9.24652 9.76388 9.16666 9.99999 9.16666C10.2361 9.16666 10.434 9.24652 10.5937 9.40625C10.7535 9.56597 10.8333 9.76388 10.8333 9.99999C10.8333 10.2361 10.7535 10.434 10.5937 10.5937C10.434 10.7535 10.2361 10.8333 9.99999 10.8333ZM10.0015 17.9167C8.90645 17.9167 7.87722 17.7089 6.91374 17.2933C5.95027 16.8778 5.11222 16.3138 4.39958 15.6015C3.68694 14.8891 3.1227 14.0514 2.70687 13.0883C2.29118 12.1253 2.08333 11.0963 2.08333 10.0015C2.08333 8.90645 2.29111 7.87722 2.70666 6.91374C3.12222 5.95027 3.68618 5.11222 4.39854 4.39958C5.1109 3.68694 5.94861 3.1227 6.91166 2.70687C7.87472 2.29118 8.90368 2.08333 9.99854 2.08333C11.0935 2.08333 12.1228 2.29111 13.0862 2.70666C14.0497 3.12222 14.8878 3.68618 15.6004 4.39854C16.3131 5.1109 16.8773 5.94861 17.2931 6.91166C17.7088 7.87472 17.9167 8.90368 17.9167 9.99854C17.9167 11.0935 17.7089 12.1228 17.2933 13.0862C16.8778 14.0497 16.3138 14.8878 15.6015 15.6004C14.8891 16.3131 14.0514 16.8773 13.0883 17.2931C12.1253 17.7088 11.0963 17.9167 10.0015 17.9167Z" fill="black"/>
</g>
</g>
</svg>
