<svg width="20" height="20" viewBox="0 0 20 20" fill="none" xmlns="http://www.w3.org/2000/svg">
<g id="State=On">
<mask id="mask0_18_99" style="mask-type:alpha" maskUnits="userSpaceOnUse" x="0" y="0" width="20" height="20">
<rect id="Bounding box" width="20" height="20" fill="#D9D9D9"/>
</mask>
<g mask="url(#mask0_18_99)">
<path id="visibility" d="M10.0019 12.9808C10.9462 12.9808 11.7482 12.6503 12.4079 11.9894C13.0676 11.3284 13.3975 10.5258 13.3975 9.58146C13.3975 8.63715 13.067 7.83514 12.406 7.17542C11.7451 6.51569 10.9424 6.18583 9.99812 6.18583C9.05381 6.18583 8.2518 6.51632 7.59207 7.17729C6.93235 7.83826 6.60249 8.6409 6.60249 9.58521C6.60249 10.5295 6.93298 11.3315 7.59395 11.9913C8.25492 12.651 9.05756 12.9808 10.0019 12.9808ZM9.99999 11.8333C9.37499 11.8333 8.84374 11.6146 8.40624 11.1771C7.96874 10.7396 7.74999 10.2083 7.74999 9.58333C7.74999 8.95833 7.96874 8.42708 8.40624 7.98958C8.84374 7.55208 9.37499 7.33333 9.99999 7.33333C10.625 7.33333 11.1562 7.55208 11.5937 7.98958C12.0312 8.42708 12.25 8.95833 12.25 9.58333C12.25 10.2083 12.0312 10.7396 11.5937 11.1771C11.1562 11.6146 10.625 11.8333 9.99999 11.8333ZM10.001 15.4167C8.08478 15.4167 6.33874 14.8881 4.76291 13.8308C3.18707 12.7738 2.0268 11.3579 1.28207 9.58333C2.0268 7.80875 3.18666 6.39292 4.76166 5.33583C6.3368 4.27861 8.08256 3.75 9.99895 3.75C11.9152 3.75 13.6612 4.27861 15.2371 5.33583C16.8129 6.39292 17.9732 7.80875 18.7179 9.58333C17.9732 11.3579 16.8133 12.7738 15.2383 13.8308C13.6632 14.8881 11.9174 15.4167 10.001 15.4167ZM9.99999 14.1667C11.5694 14.1667 13.0104 13.7535 14.3229 12.9271C15.6354 12.1007 16.6389 10.9861 17.3333 9.58333C16.6389 8.18056 15.6354 7.06597 14.3229 6.23958C13.0104 5.41319 11.5694 5 9.99999 5C8.43055 5 6.98957 5.41319 5.67707 6.23958C4.36457 7.06597 3.3611 8.18056 2.66666 9.58333C3.3611 10.9861 4.36457 12.1007 5.67707 12.9271C6.98957 13.7535 8.43055 14.1667 9.99999 14.1667Z" fill="black"/>
</g>
</g>
</svg>
