<svg width="20" height="20" viewBox="0 0 20 20" fill="none" xmlns="http://www.w3.org/2000/svg">
<g id="State=Off">
<mask id="mask0_18_100" style="mask-type:alpha" maskUnits="userSpaceOnUse" x="0" y="0" width="20" height="20">
<rect id="Bounding box" width="20" height="20" fill="#D9D9D9"/>
</mask>
<g mask="url(#mask0_18_100)">
<path id="visibility_off" d="M13.1442 10.8108L12.2083 9.875C12.3333 9.18486 12.1365 8.56438 11.6177 8.01354C11.0991 7.46285 10.4626 7.25 9.70834 7.375L8.77251 6.43917C8.96056 6.35473 9.15341 6.29139 9.35105 6.24917C9.54869 6.20695 9.76501 6.18584 10 6.18584C10.9456 6.18584 11.7482 6.5157 12.4079 7.17542C13.0676 7.83514 13.3975 8.63778 13.3975 9.58334C13.3975 9.81834 13.3764 10.0374 13.3342 10.2404C13.292 10.4433 13.2286 10.6335 13.1442 10.8108ZM15.7948 13.4038L14.875 12.5417C15.4028 12.1389 15.8715 11.6979 16.2813 11.2188C16.691 10.7396 17.0417 10.1944 17.3333 9.58334C16.6389 8.18056 15.6424 7.06597 14.3438 6.23959C13.0451 5.4132 11.5972 5 10 5C9.59723 5 9.2014 5.02778 8.81251 5.08334C8.42362 5.13889 8.04167 5.22222 7.66667 5.33334L6.69563 4.36229C7.2223 4.15285 7.76021 3.99847 8.30938 3.89917C8.85855 3.79972 9.42209 3.75 10 3.75C11.9529 3.75 13.7141 4.28847 15.2835 5.36542C16.853 6.44236 17.9978 7.84834 18.7179 9.58334C18.4092 10.3279 18.0104 11.0229 17.5217 11.6683C17.0328 12.3136 16.4572 12.8921 15.7948 13.4038ZM16.4679 18.2244L13.0963 14.8781C12.6689 15.0363 12.1953 15.1656 11.6754 15.266C11.1557 15.3665 10.5972 15.4167 10 15.4167C8.04167 15.4167 6.28049 14.8782 4.71646 13.8013C3.1523 12.7243 2.00751 11.3183 1.28209 9.58334C1.58973 8.84722 1.98716 8.16056 2.47438 7.52334C2.9616 6.88597 3.49792 6.33334 4.08334 5.86542L1.77563 3.53209L2.65396 2.65396L17.346 17.346L16.4679 18.2244ZM4.96167 6.74354C4.52139 7.09396 4.0932 7.51521 3.67709 8.00729C3.26098 8.49924 2.92417 9.02459 2.66667 9.58334C3.36112 10.9861 4.35764 12.1007 5.65626 12.9271C6.95487 13.7535 8.40278 14.1667 10 14.1667C10.3793 14.1667 10.757 14.1346 11.1331 14.0704C11.5091 14.0064 11.828 13.9402 12.0898 13.8719L11.0352 12.7917C10.8931 12.8493 10.7286 12.8952 10.5417 12.9294C10.3547 12.9637 10.1742 12.9808 10 12.9808C9.05445 12.9808 8.25181 12.651 7.59209 11.9913C6.93237 11.3315 6.60251 10.5289 6.60251 9.58334C6.60251 9.41459 6.61966 9.23806 6.65396 9.05375C6.68813 8.86945 6.73403 8.7009 6.79167 8.54813L4.96167 6.74354Z" fill="black"/>
</g>
</g>
</svg>
