<svg width="22" height="22" viewBox="0 0 22 22" fill="none" xmlns="http://www.w3.org/2000/svg">
<g id="favorite">
<mask id="mask0_5787_5015" style="mask-type:alpha" maskUnits="userSpaceOnUse" x="0" y="0" width="22" height="22">
<rect id="Bounding box" width="22" height="22" fill="#D9D9D9"/>
</mask>
<g mask="url(#mask0_5787_5015)">
<path id="favorite_2" d="M11 18.6328L9.98819 17.7232C8.46866 16.3447 7.21206 15.1602 6.2184 14.1696C5.22473 13.1788 4.43731 12.297 3.85615 11.5243C3.27498 10.7517 2.86897 10.0468 2.63813 9.40976C2.40713 8.77283 2.29163 8.12651 2.29163 7.47078C2.29163 6.16988 2.73025 5.08073 3.6075 4.20333C4.4849 3.32608 5.57406 2.88745 6.87496 2.88745C7.67521 2.88745 8.43146 3.0746 9.14371 3.44891C9.85596 3.82322 10.4747 4.36 11 5.05926C11.5252 4.36 12.144 3.82322 12.8562 3.44891C13.5685 3.0746 14.3247 2.88745 15.125 2.88745C16.4259 2.88745 17.515 3.32608 18.3924 4.20333C19.2697 5.08073 19.7083 6.16988 19.7083 7.47078C19.7083 8.12651 19.5928 8.77283 19.3618 9.40976C19.1309 10.0468 18.7249 10.7517 18.1438 11.5243C17.5626 12.297 16.7766 13.1788 15.7859 14.1696C14.7953 15.1602 13.5372 16.3447 12.0117 17.7232L11 18.6328Z" fill="white"/>
</g>
</g>
</svg>
