<svg width="24" height="25" viewBox="0 0 24 25" fill="none" xmlns="http://www.w3.org/2000/svg">
<g id="fitness_center">
<mask id="mask0_5787_19" style="mask-type:alpha" maskUnits="userSpaceOnUse" x="0" y="0" width="24" height="25">
<rect id="Bounding box" y="0.213074" width="24" height="24" fill="#D9D9D9"/>
</mask>
<g mask="url(#mask0_5787_19)">
<path id="fitness_center_2" d="M13.4962 21.8631L12.3462 20.7131L15.8962 17.1631L7.04998 8.31683L3.49998 11.8668L2.34998 10.7168L3.76923 9.26683L2.61923 8.11683L4.71923 6.01683L3.31923 4.58608L4.37298 3.53233L5.80373 4.93233L7.90373 2.83233L9.05373 3.98233L10.5037 2.56308L11.6537 3.71308L8.10373 7.26308L16.95 16.1093L20.5 12.5593L21.65 13.7093L20.2307 15.1593L21.3807 16.3093L19.2807 18.4093L20.6807 19.8401L19.627 20.8938L18.1962 19.4938L16.0962 21.5938L14.9462 20.4438L13.4962 21.8631Z" fill="#024449"/>
</g>
</g>
</svg>
