<svg width="22" height="22" viewBox="0 0 22 22" fill="none" xmlns="http://www.w3.org/2000/svg">
<g id="home_storage">
<mask id="mask0_4058_8352" style="mask-type:alpha" maskUnits="userSpaceOnUse" x="0" y="0" width="22" height="22">
<rect id="Bounding box" width="22" height="22" fill="#D9D9D9"/>
</mask>
<g mask="url(#mask0_4058_8352)">
<path id="home_storage_2" d="M4.97106 18.5096L3.2876 8.42627H18.7123L17.0289 18.5096H4.97106ZM9.16664 13.2388H12.8333C13.0281 13.2388 13.1913 13.1728 13.323 13.041C13.4549 12.9092 13.5208 12.7458 13.5208 12.551C13.5208 12.3561 13.4549 12.1929 13.323 12.0613C13.1913 11.9296 13.0281 11.8638 12.8333 11.8638H9.16664C8.97185 11.8638 8.8086 11.9297 8.67691 12.0615C8.54506 12.1934 8.47914 12.3567 8.47914 12.5515C8.47914 12.7464 8.54506 12.9098 8.67691 13.0415C8.8086 13.173 8.97185 13.2388 9.16664 13.2388ZM5.49997 7.33337C5.30518 7.33337 5.14194 7.26745 5.01024 7.1356C4.8784 7.00376 4.81247 6.84044 4.81247 6.64564C4.81247 6.4507 4.8784 6.28746 5.01024 6.15592C5.14194 6.02422 5.30518 5.95837 5.49997 5.95837H16.5C16.6948 5.95837 16.858 6.0243 16.9897 6.15615C17.1215 6.28799 17.1875 6.45131 17.1875 6.6461C17.1875 6.84105 17.1215 7.00429 16.9897 7.13583C16.858 7.26753 16.6948 7.33337 16.5 7.33337H5.49997ZM7.33331 4.86548C7.13851 4.86548 6.97527 4.79955 6.84358 4.66771C6.71173 4.53586 6.64581 4.37254 6.64581 4.17775C6.64581 3.9828 6.71173 3.81956 6.84358 3.68802C6.97527 3.55633 7.13851 3.49048 7.33331 3.49048H14.6666C14.8614 3.49048 15.0247 3.5564 15.1564 3.68825C15.2882 3.8201 15.3541 3.98342 15.3541 4.17821C15.3541 4.37315 15.2882 4.5364 15.1564 4.66794C15.0247 4.79963 14.8614 4.86548 14.6666 4.86548H7.33331Z" fill="white"/>
</g>
</g>
</svg>
