<svg width="22" height="22" viewBox="0 0 22 22" fill="none" xmlns="http://www.w3.org/2000/svg">
<g id="language">
<mask id="mask0_4058_7907" style="mask-type:alpha" maskUnits="userSpaceOnUse" x="0" y="0" width="22" height="22">
<rect id="Bounding box" width="22" height="22" fill="#D9D9D9"/>
</mask>
<g mask="url(#mask0_4058_7907)">
<path id="language_2" d="M10.9998 19.7082C9.80588 19.7082 8.67914 19.4793 7.61963 19.0216C6.56012 18.5639 5.63612 17.9407 4.84763 17.152C4.05899 16.3636 3.43581 15.4396 2.97809 14.38C2.52037 13.3205 2.2915 12.1938 2.2915 10.9998C2.2915 9.79641 2.52037 8.6673 2.97809 7.61253C3.43581 6.55775 4.05899 5.63611 4.84763 4.84763C5.63612 4.05899 6.56012 3.43581 7.61963 2.97809C8.67914 2.52037 9.80588 2.2915 10.9998 2.2915C12.2033 2.2915 13.3324 2.52037 14.3872 2.97809C15.4419 3.43581 16.3636 4.05899 17.152 4.84763C17.9407 5.63611 18.5639 6.55775 19.0216 7.61253C19.4793 8.6673 19.7082 9.79641 19.7082 10.9998C19.7082 12.1938 19.4793 13.3205 19.0216 14.38C18.5639 15.4396 17.9407 16.3636 17.152 17.152C16.3636 17.9407 15.4419 18.5639 14.3872 19.0216C13.3324 19.4793 12.2033 19.7082 10.9998 19.7082ZM10.9998 18.3137C11.4676 17.6933 11.8614 17.0675 12.181 16.4364C12.5006 15.8052 12.7609 15.1154 12.962 14.3668H9.03771C9.25053 15.1389 9.51385 15.8405 9.82765 16.4717C10.1413 17.1028 10.532 17.7168 10.9998 18.3137ZM9.22471 18.0616C8.87332 17.5574 8.55776 16.9843 8.27803 16.3422C7.99829 15.6999 7.78089 15.0414 7.62582 14.3668H4.51625C5.00041 15.3187 5.64971 16.1185 6.46417 16.7661C7.27863 17.4136 8.19881 17.8454 9.22471 18.0616ZM12.775 18.0616C13.8009 17.8454 14.721 17.4136 15.5355 16.7661C16.35 16.1185 16.9993 15.3187 17.4834 14.3668H14.3739C14.1893 15.0472 13.9572 15.7086 13.6774 16.3509C13.3978 16.9932 13.097 17.5634 12.775 18.0616ZM3.93967 12.9918H7.34738C7.28978 12.6511 7.248 12.317 7.22203 11.9896C7.19621 11.6624 7.1833 11.3324 7.1833 10.9998C7.1833 10.6672 7.19621 10.3373 7.22203 10.0101C7.248 9.68266 7.28978 9.34862 7.34738 9.00792H3.93967C3.85152 9.31928 3.78399 9.64302 3.73709 9.97913C3.69003 10.3152 3.6665 10.6555 3.6665 10.9998C3.6665 11.3442 3.69003 11.6844 3.73709 12.0205C3.78399 12.3567 3.85152 12.6804 3.93967 12.9918ZM8.72215 12.9918H13.2775C13.335 12.6511 13.3767 12.32 13.4026 11.9985C13.4285 11.6771 13.4414 11.3442 13.4414 10.9998C13.4414 10.6555 13.4285 10.3226 13.4026 10.0011C13.3767 9.67968 13.335 9.34862 13.2775 9.00792H8.72215C8.66471 9.34862 8.623 9.67968 8.59703 10.0011C8.57121 10.3226 8.5583 10.6555 8.5583 10.9998C8.5583 11.3442 8.57121 11.6771 8.59703 11.9985C8.623 12.32 8.66471 12.6511 8.72215 12.9918ZM14.6523 12.9918H18.06C18.1482 12.6804 18.2157 12.3567 18.2626 12.0205C18.3096 11.6844 18.3332 11.3442 18.3332 10.9998C18.3332 10.6555 18.3096 10.3152 18.2626 9.97913C18.2157 9.64302 18.1482 9.31928 18.06 9.00792H14.6523C14.7099 9.34862 14.7517 9.68266 14.7777 10.0101C14.8035 10.3373 14.8164 10.6672 14.8164 10.9998C14.8164 11.3324 14.8035 11.6624 14.7777 11.9896C14.7517 12.317 14.7099 12.6511 14.6523 12.9918ZM14.3739 7.63292H17.4834C16.9935 6.6692 16.3486 5.86941 15.5488 5.23355C14.749 4.59784 13.8244 4.16303 12.775 3.92913C13.1264 4.46263 13.4389 5.04616 13.7127 5.67973C13.9866 6.31315 14.207 6.96421 14.3739 7.63292ZM9.03771 7.63292H12.962C12.7491 6.86659 12.4815 6.16053 12.159 5.51473C11.8363 4.86894 11.4499 4.25936 10.9998 3.68598C10.5498 4.25936 10.1634 4.86894 9.84071 5.51473C9.5182 6.16053 9.25053 6.86659 9.03771 7.63292ZM4.51625 7.63292H7.62582C7.79265 6.96421 8.01303 6.31315 8.28696 5.67973C8.56074 5.04616 8.87332 4.46263 9.22471 3.92913C8.16932 4.16303 7.24326 4.59937 6.44653 5.23813C5.64964 5.87674 5.00621 6.675 4.51625 7.63292Z" fill="white"/>
</g>
</g>
</svg>
