<svg width="22" height="22" viewBox="0 0 22 22" fill="none" xmlns="http://www.w3.org/2000/svg">
<g id="light_mode">
<mask id="mask0_4058_8121" style="mask-type:alpha" maskUnits="userSpaceOnUse" x="0" y="0" width="22" height="22">
<rect id="Bounding box" width="22" height="22" fill="#D9D9D9"/>
</mask>
<g mask="url(#mask0_4058_8121)">
<path id="light_mode_2" d="M11.0002 15.1249C9.85555 15.1249 8.8819 14.7236 8.0792 13.9209C7.27651 13.1182 6.87516 12.1445 6.87516 10.9999C6.87516 9.85531 7.27651 8.88165 8.0792 8.07896C8.8819 7.27627 9.85555 6.87492 11.0002 6.87492C12.1448 6.87492 13.1184 7.27627 13.9211 8.07896C14.7238 8.88165 15.1252 9.85531 15.1252 10.9999C15.1252 12.1445 14.7238 13.1182 13.9211 13.9209C13.1184 14.7236 12.1448 15.1249 11.0002 15.1249ZM4.5835 11.6874H1.146V10.3124H4.5835V11.6874ZM20.8543 11.6874H17.4168V10.3124H20.8543V11.6874ZM10.3127 4.58325V1.14575H11.6877V4.58325H10.3127ZM10.3127 20.8541V17.4166H11.6877V20.8541H10.3127ZM6.02541 6.9455L3.87835 4.87246L4.84979 3.85519L6.91756 5.97933L6.02541 6.9455ZM17.1505 18.1446L15.0688 16.0063L15.9749 15.0543L18.122 17.1274L17.1505 18.1446ZM15.0546 6.02517L17.1276 3.87811L18.1449 4.84954L16.0207 6.91731L15.0546 6.02517ZM3.85543 17.1503L5.99379 15.0685L6.9281 15.9747L4.86377 18.1304L3.85543 17.1503Z" fill="white"/>
</g>
</g>
</svg>
