<svg width="18" height="18" viewBox="0 0 18 18" fill="none" xmlns="http://www.w3.org/2000/svg">
<g id="location_on">
<mask id="mask0_1079_8179" style="mask-type:alpha" maskUnits="userSpaceOnUse" x="0" y="0" width="18" height="18">
<rect id="Bounding box" width="18" height="18" fill="#D9D9D9"/>
</mask>
<g mask="url(#mask0_1079_8179)">
<path id="location_on_2" d="M9.0013 8.89894C9.37443 8.89894 9.69343 8.76606 9.9583 8.50031C10.2233 8.23456 10.3558 7.91512 10.3558 7.542C10.3558 7.16887 10.2229 6.84981 9.95718 6.58481C9.69143 6.31994 9.37193 6.1875 8.99868 6.1875C8.62555 6.1875 8.30655 6.32038 8.04168 6.58613C7.77668 6.85188 7.64418 7.17138 7.64418 7.54463C7.64418 7.91775 7.77705 8.23675 8.0428 8.50163C8.30855 8.7665 8.62805 8.89894 9.0013 8.89894ZM8.99999 14.6351C10.4672 13.3216 11.5901 12.0618 12.3684 10.8555C13.1468 9.64925 13.536 8.59275 13.536 7.686C13.536 6.31875 13.1016 5.19475 12.2329 4.314C11.3641 3.43325 10.2865 2.99287 8.99999 2.99287C7.71349 2.99287 6.63586 3.43325 5.76711 4.314C4.89836 5.19475 4.46399 6.31875 4.46399 7.686C4.46399 8.59275 4.85318 9.64925 5.63155 10.8555C6.40993 12.0618 7.53274 13.3216 8.99999 14.6351ZM8.99999 16.1321C7.11249 14.4966 5.69711 12.9746 4.75386 11.5659C3.81061 10.1572 3.33899 8.86387 3.33899 7.686C3.33899 5.95525 3.8988 4.55406 5.01843 3.48244C6.13818 2.41081 7.46536 1.875 8.99999 1.875C10.5346 1.875 11.8618 2.41081 12.9816 3.48244C14.1012 4.55406 14.661 5.95525 14.661 7.686C14.661 8.86387 14.1894 10.1572 13.2461 11.5659C12.3029 12.9746 10.8875 14.4966 8.99999 16.1321Z" fill="#024449"/>
</g>
</g>
</svg>
