<svg width="20" height="20" viewBox="0 0 20 20" fill="none" xmlns="http://www.w3.org/2000/svg">
<g id="Style=Filled">
<mask id="mask0_61_52" style="mask-type:alpha" maskUnits="userSpaceOnUse" x="0" y="0" width="20" height="20">
<rect id="Bounding box" width="20" height="20" fill="#D9D9D9"/>
</mask>
<g mask="url(#mask0_61_52)">
<path id="location_on" d="M10.0015 9.8877C10.416 9.8877 10.7705 9.74006 11.0648 9.44479C11.3592 9.14951 11.5065 8.79458 11.5065 8.37999C11.5065 7.96541 11.3588 7.6109 11.0635 7.31645C10.7683 7.02215 10.4133 6.87499 9.99854 6.87499C9.58396 6.87499 9.22951 7.02263 8.93521 7.31791C8.64076 7.61319 8.49354 7.96819 8.49354 8.38291C8.49354 8.79749 8.64118 9.15194 8.93646 9.44625C9.23174 9.74055 9.58674 9.8877 10.0015 9.8877ZM10 17.9246C7.90278 16.1074 6.33014 14.4162 5.28208 12.851C4.23403 11.2858 3.71 9.84874 3.71 8.53999C3.71 6.61694 4.33201 5.06006 5.57604 3.86937C6.82021 2.67867 8.29486 2.08333 10 2.08333C11.7051 2.08333 13.1798 2.67867 14.424 3.86937C15.668 5.06006 16.29 6.61694 16.29 8.53999C16.29 9.84874 15.766 11.2858 14.7179 12.851C13.6699 14.4162 12.0972 16.1074 10 17.9246Z" fill="black"/>
</g>
</g>
</svg>
