<svg width="22" height="22" viewBox="0 0 22 22" fill="none" xmlns="http://www.w3.org/2000/svg">
<g id="logout">
<mask id="mask0_4058_8309" style="mask-type:alpha" maskUnits="userSpaceOnUse" x="0" y="0" width="22" height="22">
<rect id="Bounding box" width="22" height="22" fill="#D9D9D9"/>
</mask>
<g mask="url(#mask0_4058_8309)">
<path id="logout_2" d="M4.8656 18.7916C4.40253 18.7916 4.01058 18.6312 3.68975 18.3103C3.36891 17.9895 3.2085 17.5976 3.2085 17.1345V4.86536C3.2085 4.40229 3.36891 4.01034 3.68975 3.6895C4.01058 3.36867 4.40253 3.20825 4.8656 3.20825H11.0089V4.58325H4.8656C4.79502 4.58325 4.73039 4.61266 4.67173 4.67148C4.61291 4.73015 4.5835 4.79477 4.5835 4.86536V17.1345C4.5835 17.2051 4.61291 17.2697 4.67173 17.3284C4.73039 17.3872 4.79502 17.4166 4.8656 17.4166H11.0089V18.7916H4.8656ZM14.8784 14.9134L13.9264 13.919L16.1582 11.6874H8.33839V10.3124H16.1582L13.9264 8.08079L14.8784 7.08644L18.7918 10.9999L14.8784 14.9134Z" fill="white"/>
</g>
</g>
</svg>
