<svg width="297" height="293" viewBox="0 0 297 293" fill="none" xmlns="http://www.w3.org/2000/svg">
<path d="M262.538 291L272.038 237H296.038L294.038 247.5H283.038L281.038 258H291.538L290.038 268H279.038L277.038 281H288.538L286.538 291H262.538Z" fill="#024449" stroke="#024449" stroke-width="0.5"/>
<path d="M221.538 291L223.038 237.5H235.038L233.538 272L243.538 237.5H256.038L239.038 291H221.538Z" fill="#024449" stroke="#024449" stroke-width="0.5"/>
<path d="M185.038 291L194.538 237.5H206.538L197.538 291H185.038Z" fill="#024449" stroke="#024449" stroke-width="0.5"/>
<path fill-rule="evenodd" clip-rule="evenodd" d="M101.538 238L92.5377 291H105.038L107.038 277.5C107.371 277.333 108.138 277.1 108.538 277.5C108.938 277.9 108.704 286.667 108.538 291H121.538L120.538 274C121.538 273.167 123.638 271 124.038 269C124.438 267 126.538 253.5 127.538 247C127.704 246 127.938 243.6 127.538 242C127.288 241 124.038 238.5 121.038 237.5L101.538 237V238ZM112.038 247.5L109.038 267C109.871 267.167 111.538 267.4 111.538 267C111.538 266.6 113.871 253.833 115.038 247.5C114.204 247.333 112.438 247.1 112.038 247.5Z" fill="#024449"/>
<path d="M92.5377 291L92.2912 290.958L92.2417 291.25H92.5377V291ZM101.538 238L101.784 238.042L101.788 238.021V238H101.538ZM105.038 291V291.25H105.253L105.285 291.037L105.038 291ZM107.038 277.5L106.926 277.276L106.809 277.335L106.79 277.463L107.038 277.5ZM108.538 291L108.288 290.99L108.278 291.25H108.538V291ZM121.538 291V291.25H121.803L121.787 290.985L121.538 291ZM120.538 274L120.378 273.808L120.281 273.889L120.288 274.015L120.538 274ZM127.538 247L127.291 246.959L127.291 246.962L127.538 247ZM127.538 242L127.295 242.061L127.538 242ZM121.038 237.5L121.117 237.263L121.081 237.251L121.044 237.25L121.038 237.5ZM101.538 237L101.544 236.75L101.288 236.744V237H101.538ZM109.038 267L108.791 266.962L108.754 267.198L108.989 267.245L109.038 267ZM112.038 247.5L111.861 247.323L111.803 247.381L111.791 247.462L112.038 247.5ZM115.038 247.5L115.284 247.545L115.328 247.303L115.087 247.255L115.038 247.5ZM92.7842 291.042L101.784 238.042L101.291 237.958L92.2912 290.958L92.7842 291.042ZM105.038 290.75H92.5377V291.25H105.038V290.75ZM106.79 277.463L104.79 290.963L105.285 291.037L107.285 277.537L106.79 277.463ZM108.714 277.323C108.436 277.045 108.051 277.006 107.737 277.039C107.417 277.072 107.113 277.183 106.926 277.276L107.15 277.724C107.296 277.651 107.541 277.562 107.788 277.536C108.041 277.51 108.239 277.555 108.361 277.677L108.714 277.323ZM108.788 291.01C108.871 288.842 108.971 285.564 109 282.778C109.015 281.385 109.012 280.112 108.98 279.16C108.964 278.685 108.941 278.286 108.908 277.99C108.892 277.842 108.872 277.715 108.849 277.613C108.837 277.563 108.823 277.514 108.806 277.469C108.79 277.43 108.763 277.372 108.714 277.323L108.361 277.677C108.337 277.653 108.334 277.636 108.341 277.654C108.346 277.666 108.353 277.69 108.362 277.726C108.379 277.8 108.396 277.905 108.411 278.045C108.441 278.322 108.464 278.706 108.48 279.177C108.512 280.117 108.515 281.382 108.5 282.772C108.471 285.553 108.371 288.825 108.288 290.99L108.788 291.01ZM121.538 290.75H108.538V291.25H121.538V290.75ZM120.288 274.015L121.288 291.015L121.787 290.985L120.787 273.985L120.288 274.015ZM123.793 268.951C123.604 269.894 123.007 270.899 122.316 271.784C121.628 272.664 120.865 273.402 120.378 273.808L120.698 274.192C121.21 273.765 121.998 273.002 122.71 272.091C123.418 271.185 124.071 270.106 124.283 269.049L123.793 268.951ZM127.291 246.962C126.29 253.467 124.191 266.958 123.793 268.951L124.283 269.049C124.684 267.042 126.786 253.533 127.785 247.038L127.291 246.962ZM127.295 242.061C127.487 242.827 127.529 243.8 127.5 244.717C127.472 245.631 127.373 246.469 127.291 246.959L127.784 247.041C127.869 246.531 127.971 245.669 128 244.733C128.03 243.8 127.989 242.773 127.78 241.939L127.295 242.061ZM120.959 237.737C122.429 238.227 123.969 239.089 125.173 239.953C125.775 240.385 126.287 240.813 126.661 241.192C126.848 241.381 126.998 241.554 127.106 241.706C127.217 241.861 127.275 241.98 127.295 242.061L127.78 241.939C127.738 241.77 127.639 241.592 127.513 241.415C127.384 241.235 127.216 241.041 127.016 240.84C126.617 240.437 126.082 239.99 125.465 239.547C124.231 238.661 122.646 237.773 121.117 237.263L120.959 237.737ZM101.531 237.25L121.031 237.75L121.044 237.25L101.544 236.75L101.531 237.25ZM101.788 238V237H101.288V238H101.788ZM109.285 267.038L112.285 247.538L111.791 247.462L108.791 266.962L109.285 267.038ZM111.288 267C111.288 266.979 111.294 266.956 111.306 266.937C111.316 266.92 111.327 266.913 111.325 266.914C111.319 266.918 111.289 266.933 111.218 266.946C111.079 266.973 110.87 266.977 110.614 266.963C110.11 266.935 109.497 266.837 109.087 266.755L108.989 267.245C109.411 267.33 110.049 267.432 110.586 267.462C110.852 267.477 111.111 267.475 111.31 267.438C111.409 267.419 111.515 267.388 111.603 267.329C111.7 267.265 111.788 267.155 111.788 267H111.288ZM114.792 247.455C114.208 250.622 113.333 255.397 112.604 259.431C112.24 261.447 111.911 263.279 111.674 264.632C111.556 265.308 111.46 265.865 111.394 266.266C111.36 266.467 111.335 266.629 111.317 266.748C111.301 266.856 111.288 266.952 111.288 267H111.788C111.788 267.005 111.788 266.996 111.793 266.957C111.797 266.924 111.803 266.879 111.811 266.821C111.829 266.706 111.854 266.547 111.887 266.348C111.953 265.949 112.048 265.394 112.167 264.718C112.404 263.367 112.732 261.536 113.096 259.519C113.825 255.487 114.7 250.712 115.284 247.545L114.792 247.455ZM112.214 247.677C112.252 247.639 112.363 247.586 112.592 247.556C112.805 247.527 113.072 247.523 113.363 247.537C113.943 247.566 114.58 247.663 114.989 247.745L115.087 247.255C114.662 247.17 113.999 247.068 113.387 247.038C113.082 247.023 112.781 247.025 112.525 247.06C112.283 247.093 112.024 247.161 111.861 247.323L112.214 247.677Z" fill="#024449"/>
<path fill-rule="evenodd" clip-rule="evenodd" d="M147.538 238L138.538 291H151.038L153.038 277.5C153.371 277.333 154.138 277.1 154.538 277.5C154.938 277.9 154.704 286.667 154.538 291H167.538L166.538 274C167.538 273.167 169.638 271 170.038 269C170.438 267 172.538 253.5 173.538 247C173.704 246 173.938 243.6 173.538 242C173.288 241 170.038 238.5 167.038 237.5L147.538 237V238ZM158.038 247.5L155.038 267C155.871 267.167 157.538 267.4 157.538 267C157.538 266.6 159.871 253.833 161.038 247.5C160.204 247.333 158.438 247.1 158.038 247.5Z" fill="#024449"/>
<path d="M138.538 291L138.291 290.958L138.242 291.25H138.538V291ZM147.538 238L147.784 238.042L147.788 238.021V238H147.538ZM151.038 291V291.25H151.253L151.285 291.037L151.038 291ZM153.038 277.5L152.926 277.276L152.809 277.335L152.79 277.463L153.038 277.5ZM154.538 291L154.288 290.99L154.278 291.25H154.538V291ZM167.538 291V291.25H167.803L167.787 290.985L167.538 291ZM166.538 274L166.378 273.808L166.281 273.889L166.288 274.015L166.538 274ZM173.538 247L173.291 246.959L173.291 246.962L173.538 247ZM173.538 242L173.295 242.061L173.538 242ZM167.038 237.5L167.117 237.263L167.081 237.251L167.044 237.25L167.038 237.5ZM147.538 237L147.544 236.75L147.288 236.744V237H147.538ZM155.038 267L154.791 266.962L154.754 267.198L154.989 267.245L155.038 267ZM158.038 247.5L157.861 247.323L157.803 247.381L157.791 247.462L158.038 247.5ZM161.038 247.5L161.284 247.545L161.328 247.303L161.087 247.255L161.038 247.5ZM138.784 291.042L147.784 238.042L147.291 237.958L138.291 290.958L138.784 291.042ZM151.038 290.75H138.538V291.25H151.038V290.75ZM152.79 277.463L150.79 290.963L151.285 291.037L153.285 277.537L152.79 277.463ZM154.714 277.323C154.436 277.045 154.051 277.006 153.737 277.039C153.417 277.072 153.113 277.183 152.926 277.276L153.15 277.724C153.296 277.651 153.541 277.562 153.788 277.536C154.041 277.51 154.239 277.555 154.361 277.677L154.714 277.323ZM154.788 291.01C154.871 288.842 154.971 285.564 155 282.778C155.015 281.385 155.012 280.112 154.98 279.16C154.964 278.685 154.941 278.286 154.908 277.99C154.892 277.842 154.872 277.715 154.849 277.613C154.837 277.563 154.823 277.514 154.806 277.469C154.79 277.43 154.763 277.372 154.714 277.323L154.361 277.677C154.337 277.653 154.334 277.636 154.341 277.654C154.346 277.666 154.353 277.69 154.362 277.726C154.379 277.8 154.396 277.905 154.411 278.045C154.441 278.322 154.464 278.706 154.48 279.177C154.512 280.117 154.515 281.382 154.5 282.772C154.471 285.553 154.371 288.825 154.288 290.99L154.788 291.01ZM167.538 290.75H154.538V291.25H167.538V290.75ZM166.288 274.015L167.288 291.015L167.787 290.985L166.787 273.985L166.288 274.015ZM169.793 268.951C169.604 269.894 169.007 270.899 168.316 271.784C167.628 272.664 166.865 273.402 166.378 273.808L166.698 274.192C167.21 273.765 167.998 273.002 168.71 272.091C169.418 271.185 170.071 270.106 170.283 269.049L169.793 268.951ZM173.291 246.962C172.29 253.467 170.191 266.958 169.793 268.951L170.283 269.049C170.684 267.042 172.786 253.533 173.785 247.038L173.291 246.962ZM173.295 242.061C173.487 242.827 173.529 243.8 173.5 244.717C173.472 245.631 173.373 246.469 173.291 246.959L173.784 247.041C173.869 246.531 173.971 245.669 174 244.733C174.03 243.8 173.989 242.773 173.78 241.939L173.295 242.061ZM166.959 237.737C168.429 238.227 169.969 239.089 171.173 239.953C171.775 240.385 172.287 240.813 172.661 241.192C172.848 241.381 172.998 241.554 173.106 241.706C173.217 241.861 173.275 241.98 173.295 242.061L173.78 241.939C173.738 241.77 173.639 241.592 173.513 241.415C173.384 241.235 173.216 241.041 173.016 240.84C172.617 240.437 172.082 239.99 171.465 239.547C170.231 238.661 168.646 237.773 167.117 237.263L166.959 237.737ZM147.531 237.25L167.031 237.75L167.044 237.25L147.544 236.75L147.531 237.25ZM147.788 238V237H147.288V238H147.788ZM155.285 267.038L158.285 247.538L157.791 247.462L154.791 266.962L155.285 267.038ZM157.288 267C157.288 266.979 157.294 266.956 157.306 266.937C157.316 266.92 157.327 266.913 157.325 266.914C157.319 266.918 157.289 266.933 157.218 266.946C157.079 266.973 156.87 266.977 156.614 266.963C156.11 266.935 155.497 266.837 155.087 266.755L154.989 267.245C155.411 267.33 156.049 267.432 156.586 267.462C156.852 267.477 157.111 267.475 157.31 267.438C157.409 267.419 157.515 267.388 157.603 267.329C157.7 267.265 157.788 267.155 157.788 267H157.288ZM160.792 247.455C160.208 250.622 159.333 255.397 158.604 259.431C158.24 261.447 157.911 263.279 157.674 264.632C157.556 265.308 157.46 265.865 157.394 266.266C157.36 266.467 157.335 266.629 157.317 266.748C157.301 266.856 157.288 266.952 157.288 267H157.788C157.788 267.005 157.788 266.996 157.793 266.957C157.797 266.924 157.803 266.879 157.811 266.821C157.829 266.706 157.854 266.547 157.887 266.348C157.953 265.949 158.048 265.394 158.167 264.718C158.404 263.367 158.732 261.536 159.096 259.519C159.825 255.487 160.7 250.712 161.284 247.545L160.792 247.455ZM158.214 247.677C158.252 247.639 158.363 247.586 158.592 247.556C158.805 247.527 159.072 247.523 159.363 247.537C159.943 247.566 160.58 247.663 160.989 247.745L161.087 247.255C160.662 247.17 159.999 247.068 159.387 247.038C159.082 247.023 158.781 247.025 158.525 247.06C158.283 247.093 158.024 247.161 157.861 247.323L158.214 247.677Z" fill="#024449"/>
<path fill-rule="evenodd" clip-rule="evenodd" d="M59.5377 237H77.5377L76.0377 291H63.5377V283.5H57.0377L55.0377 291H43.0377L59.5377 237ZM65.5377 256L60.0377 273.5H64.5377L65.5377 256Z" fill="#024449"/>
<path d="M77.5377 237L77.7876 237.007L77.7948 236.75H77.5377V237ZM59.5377 237V236.75H59.3527L59.2986 236.927L59.5377 237ZM76.0377 291V291.25H76.2809L76.2876 291.007L76.0377 291ZM63.5377 291H63.2877V291.25H63.5377V291ZM63.5377 283.5H63.7877V283.25H63.5377V283.5ZM57.0377 283.5V283.25H56.8456L56.7962 283.436L57.0377 283.5ZM55.0377 291V291.25H55.2298L55.2793 291.064L55.0377 291ZM43.0377 291L42.7986 290.927L42.6999 291.25H43.0377V291ZM60.0377 273.5L59.7992 273.425L59.6971 273.75H60.0377V273.5ZM65.5377 256L65.7873 256.014L65.2992 255.925L65.5377 256ZM64.5377 273.5V273.75H64.7738L64.7873 273.514L64.5377 273.5ZM77.5377 236.75H59.5377V237.25H77.5377V236.75ZM76.2876 291.007L77.7876 237.007L77.2878 236.993L75.7878 290.993L76.2876 291.007ZM63.5377 291.25H76.0377V290.75H63.5377V291.25ZM63.2877 283.5V291H63.7877V283.5H63.2877ZM57.0377 283.75H63.5377V283.25H57.0377V283.75ZM55.2793 291.064L57.2793 283.564L56.7962 283.436L54.7962 290.936L55.2793 291.064ZM43.0377 291.25H55.0377V290.75H43.0377V291.25ZM59.2986 236.927L42.7986 290.927L43.2768 291.073L59.7768 237.073L59.2986 236.927ZM60.2762 273.575L65.7762 256.075L65.2992 255.925L59.7992 273.425L60.2762 273.575ZM64.5377 273.25H60.0377V273.75H64.5377V273.25ZM65.2881 255.986L64.2881 273.486L64.7873 273.514L65.7873 256.014L65.2881 255.986Z" fill="#024449"/>
<path d="M33.0377 258H21.0377C21.5377 254.667 22.4377 247.8 22.0377 247C21.6377 246.2 20.2044 246.667 19.5377 247C17.5377 258.333 13.6377 281.1 14.0377 281.5C14.4377 281.9 15.8711 281.667 16.5377 281.5L18.5377 271H30.5377C30.3711 273.833 29.7377 280.4 28.5377 284C27.3377 287.6 22.3711 290.167 20.0377 291C17.5377 291.667 11.3377 292.6 6.53771 291C1.73771 289.4 0.871045 284.667 1.03771 282.5L7.53771 246C7.87105 244.167 9.43771 240.1 13.0377 238.5C17.5377 236.5 22.5377 236 29.0377 237.5C34.2377 238.7 35.2044 243 35.0377 245L33.0377 258Z" fill="#024449" stroke="#024449" stroke-width="0.5"/>
<path d="M273.538 109.5L251.038 118.5C248.638 132.5 244.704 146.667 243.038 152L261.538 149C264.338 141.8 269.704 142.667 272.038 144C275.638 136.4 277.871 119.5 278.538 112C276.138 111.6 274.204 110.167 273.538 109.5Z" fill="#024449" stroke="#024449" stroke-width="0.5"/>
<path d="M165.538 201.5C169.138 199.1 179.371 190.167 184.038 186C187.638 191.6 192.204 189.333 194.038 187.5L208.038 193C200.538 199.5 192.538 200.5 190.538 201C188.938 201.4 173.204 201.5 165.538 201.5Z" fill="#024449" stroke="#024449" stroke-width="0.5"/>
<path d="M243.038 190L216.538 195L210.038 201.5C222.838 200.7 235.538 196.5 243.038 190Z" fill="#024449" stroke="#024449" stroke-width="0.5"/>
<path d="M262.538 157L238.538 161C236.938 166.2 228.538 179.5 224.538 185.5L241.538 182C243.538 178 247.538 173.5 253.538 179C257.138 175.4 263.038 166 265.538 159L262.538 157Z" fill="#024449" stroke="#024449" stroke-width="0.5"/>
<path d="M232.538 158.5L212.538 144.5C210.138 146.5 206.538 146 205.038 145.5C203.838 151.1 197.038 166.5 192.538 173.5C194.938 174.3 196.538 178.5 197.038 180.5L214.038 187C218.038 184.2 228.038 169 232.538 158.5Z" fill="#024449" stroke="#024449" stroke-width="0.5"/>
<path d="M243.538 117.5C242.338 117.5 225.038 111.167 216.538 108C215.338 110 212.371 110.167 211.038 110C211.038 113.6 209.704 124.833 209.038 130C213.038 129.6 215.538 135 215.538 138L235.538 151.5C238.338 149.5 242.538 129.5 243.538 117.5Z" fill="#024449" stroke="#024449" stroke-width="0.5"/>
<path d="M243.538 79.5L213.038 70.5C213.038 70.9 210.538 72.5 209.038 73C210.038 75.5 210.538 86.8333 211.038 93.5C217.038 93.9 218.871 98.6667 219.038 101L245.038 110C245.438 103.6 245.038 87.5 243.538 79.5Z" fill="#024449" stroke="#024449" stroke-width="0.5"/>
<path d="M230.538 3.99999C224.816 1.45715 215.204 1.16666 211.038 1.49999C218.538 6.5 229.538 21.5 237.038 35.5L246.538 27C245.538 23.5 246.038 20.5 249.538 17.5C243.538 10.5 235.038 6 230.538 3.99999Z" fill="#024449" stroke="#024449" stroke-width="0.5"/>
<path d="M231.538 41L196.038 30.5C194.838 30.9 194.538 31.6667 194.538 32C197.738 36.4 202.871 50.5 205.038 57C206.204 56.6667 208.938 56.2 210.538 57C212.138 57.8 213.538 59.6667 214.038 60.5L214.538 63L242.038 71C237.538 51.5 235.371 49.8333 232.538 43L231.538 41Z" fill="#024449" stroke="#024449" stroke-width="0.5"/>
<path d="M165.038 1C174.038 6 181.038 13.5 186.038 19.5C186.871 17.8333 190.038 15.1667 193.038 16.5C196.638 18.1 197.871 21.5 198.038 23L226.538 31C219.038 18 211.038 10 204.538 6.5C199.946 4.0274 192.704 1.66667 189.538 1H165.038Z" fill="#024449" stroke="#024449" stroke-width="0.5"/>
<path d="M248.538 69.5C246.938 59.5 242.204 47.3333 240.038 42.5L250.038 32.5C254.438 33.3 257.538 30.8333 258.538 29.5C261.338 31.5 266.371 43.3333 268.538 49C265.338 50.2 264.038 54 264.038 57L248.538 69.5Z" fill="#024449" stroke="#024449" stroke-width="0.5"/>
<path d="M268.038 63.5L250.038 78C251.238 82.4 251.538 100.833 251.538 109.5L273.038 101.5C272.638 97.9 276.871 96 279.038 95.5C279.038 86.3 276.538 72 274.038 64C271.238 64.4 270.038 64.5 268.038 63.5Z" fill="#024449" stroke="#024449" stroke-width="0.5"/>
<mask id="path-23-inside-1_6_1225" fill="white">
<path fill-rule="evenodd" clip-rule="evenodd" d="M138.538 202C174.436 202 203.538 157.005 203.538 101.5C203.538 45.9954 174.436 1 138.538 1C102.639 1 73.5377 45.9954 73.5377 101.5C73.5377 157.005 102.639 202 138.538 202ZM130.538 159C152.077 159 169.538 132.361 169.538 99.5C169.538 66.6391 152.077 40 130.538 40C108.999 40 91.5377 66.6391 91.5377 99.5C91.5377 132.361 108.999 159 130.538 159Z"/>
</mask>
<path fill-rule="evenodd" clip-rule="evenodd" d="M138.538 202C174.436 202 203.538 157.005 203.538 101.5C203.538 45.9954 174.436 1 138.538 1C102.639 1 73.5377 45.9954 73.5377 101.5C73.5377 157.005 102.639 202 138.538 202ZM130.538 159C152.077 159 169.538 132.361 169.538 99.5C169.538 66.6391 152.077 40 130.538 40C108.999 40 91.5377 66.6391 91.5377 99.5C91.5377 132.361 108.999 159 130.538 159Z" fill="#024449"/>
<path d="M203.038 101.5C203.038 129.17 195.783 154.198 184.08 172.293C172.374 190.392 156.261 201.5 138.538 201.5V202.5C156.713 202.5 173.1 191.11 184.92 172.836C196.742 154.557 204.038 129.334 204.038 101.5H203.038ZM138.538 1.5C156.261 1.5 172.374 12.6076 184.08 30.7073C195.783 48.802 203.038 73.8297 203.038 101.5H204.038C204.038 73.6657 196.742 48.4433 184.92 30.1642C173.1 11.8901 156.713 0.5 138.538 0.5V1.5ZM74.0377 101.5C74.0377 73.8297 81.2926 48.802 92.9956 30.7073C104.702 12.6076 120.815 1.5 138.538 1.5V0.5C120.362 0.5 103.975 11.8901 92.1559 30.1642C80.3336 48.4433 73.0377 73.6657 73.0377 101.5H74.0377ZM138.538 201.5C120.815 201.5 104.702 190.392 92.9956 172.293C81.2926 154.198 74.0377 129.17 74.0377 101.5H73.0377C73.0377 129.334 80.3336 154.557 92.1559 172.836C103.975 191.11 120.362 202.5 138.538 202.5V201.5ZM169.038 99.5C169.038 115.847 164.694 130.624 157.697 141.299C150.697 151.978 141.084 158.5 130.538 158.5V159.5C141.53 159.5 151.418 152.703 158.533 141.847C165.651 130.987 170.038 116.014 170.038 99.5H169.038ZM130.538 40.5C141.084 40.5 150.697 47.0221 157.697 57.7012C164.694 68.3761 169.038 83.1528 169.038 99.5H170.038C170.038 82.9863 165.651 68.0129 158.533 57.153C151.418 46.2975 141.53 39.5 130.538 39.5V40.5ZM92.0377 99.5C92.0377 83.1528 96.3818 68.3761 103.379 57.7012C110.379 47.0221 119.991 40.5 130.538 40.5V39.5C119.545 39.5 109.658 46.2975 102.542 57.153C95.4241 68.0129 91.0377 82.9863 91.0377 99.5H92.0377ZM130.538 158.5C119.991 158.5 110.379 151.978 103.379 141.299C96.3818 130.624 92.0377 115.847 92.0377 99.5H91.0377C91.0377 116.014 95.4241 130.987 102.542 141.847C109.658 152.703 119.545 159.5 130.538 159.5V158.5Z" fill="#024449" mask="url(#path-23-inside-1_6_1225)"/>
<path d="M121.038 79L132.538 40.5V39.5H134.038L142.538 80L168.038 81L169.538 88L148.038 106.5L156.038 145L154.038 147.5L130.038 122.5L104.538 145L102.538 142L114.038 105.5L92.5377 84.5L94.0377 78L121.038 79Z" fill="#024449" stroke="#024449" stroke-width="0.5"/>
<path d="M17.5377 170.5L56.5377 154L84.0377 167.5C91.2377 183.5 105.371 194.5 111.538 198L17.5377 170.5Z" fill="#024449" stroke="#024449" stroke-width="0.5"/>
</svg>
