<svg width="264" height="202" viewBox="0 0 264 202" fill="none" xmlns="http://www.w3.org/2000/svg">
<path d="M257.538 109.442L235.038 118.442C232.638 132.442 228.704 146.608 227.038 151.942L245.538 148.942C248.338 141.742 253.704 142.608 256.038 143.942C259.638 136.342 261.871 119.442 262.538 111.942C260.138 111.542 258.204 110.108 257.538 109.442Z" fill="#024449" stroke="#024449" stroke-width="0.5"/>
<path d="M149.538 201.442C153.138 199.042 163.371 190.108 168.038 185.942C171.638 191.542 176.204 189.275 178.038 187.442L192.038 192.942C184.538 199.442 176.538 200.442 174.538 200.942C172.938 201.342 157.204 201.442 149.538 201.442Z" fill="#024449" stroke="#024449" stroke-width="0.5"/>
<path d="M227.038 189.942L200.538 194.942L194.038 201.442C206.838 200.642 219.538 196.442 227.038 189.942Z" fill="#024449" stroke="#024449" stroke-width="0.5"/>
<path d="M246.538 156.942L222.538 160.942C220.938 166.142 212.538 179.442 208.538 185.442L225.538 181.942C227.538 177.942 231.538 173.442 237.538 178.942C241.138 175.342 247.038 165.942 249.538 158.942L246.538 156.942Z" fill="#024449" stroke="#024449" stroke-width="0.5"/>
<path d="M216.538 158.442L196.538 144.442C194.138 146.442 190.538 145.942 189.038 145.442C187.838 151.042 181.038 166.442 176.538 173.442C178.938 174.242 180.538 178.442 181.038 180.442L198.038 186.942C202.038 184.142 212.038 168.942 216.538 158.442Z" fill="#024449" stroke="#024449" stroke-width="0.5"/>
<path d="M227.538 117.442C226.338 117.442 209.038 111.108 200.538 107.942C199.338 109.942 196.371 110.108 195.038 109.942C195.038 113.542 193.704 124.775 193.038 129.942C197.038 129.542 199.538 134.942 199.538 137.942L219.538 151.442C222.338 149.442 226.538 129.442 227.538 117.442Z" fill="#024449" stroke="#024449" stroke-width="0.5"/>
<path d="M227.538 79.4417L197.038 70.4417C197.038 70.8417 194.538 72.4417 193.038 72.9417C194.038 75.4417 194.538 86.7751 195.038 93.4417C201.038 93.8417 202.871 98.6084 203.038 100.942L229.038 109.942C229.438 103.542 229.038 87.4417 227.538 79.4417Z" fill="#024449" stroke="#024449" stroke-width="0.5"/>
<path d="M214.538 3.94172C208.816 1.39888 199.204 1.10838 195.038 1.44172C202.538 6.44173 213.538 21.4417 221.038 35.4417L230.538 26.9417C229.538 23.4417 230.038 20.4417 233.538 17.4417C227.538 10.4417 219.038 5.94173 214.538 3.94172Z" fill="#024449" stroke="#024449" stroke-width="0.5"/>
<path d="M215.538 40.9417L180.038 30.4417C178.838 30.8417 178.538 31.6084 178.538 31.9417C181.738 36.3417 186.871 50.4417 189.038 56.9417C190.204 56.6084 192.938 56.1417 194.538 56.9417C196.138 57.7417 197.538 59.6084 198.038 60.4417L198.538 62.9417L226.038 70.9417C221.538 51.4417 219.371 49.7751 216.538 42.9417L215.538 40.9417Z" fill="#024449" stroke="#024449" stroke-width="0.5"/>
<path d="M149.038 0.941727C158.038 5.94173 165.038 13.4417 170.038 19.4417C170.871 17.7751 174.038 15.1084 177.038 16.4417C180.638 18.0417 181.871 21.4417 182.038 22.9417L210.538 30.9417C203.038 17.9417 195.038 9.94173 188.538 6.44173C183.946 3.96912 176.704 1.60839 173.538 0.941727H149.038Z" fill="#024449" stroke="#024449" stroke-width="0.5"/>
<path d="M232.538 69.4417C230.938 59.4417 226.204 47.2751 224.038 42.4417L234.038 32.4417C238.438 33.2417 241.538 30.7751 242.538 29.4417C245.338 31.4417 250.371 43.2751 252.538 48.9417C249.338 50.1417 248.038 53.9417 248.038 56.9417L232.538 69.4417Z" fill="#024449" stroke="#024449" stroke-width="0.5"/>
<path d="M252.038 63.4417L234.038 77.9417C235.238 82.3417 235.538 100.775 235.538 109.442L257.038 101.442C256.638 97.8417 260.871 95.9417 263.038 95.4417C263.038 86.2417 260.538 71.9417 258.038 63.9417C255.238 64.3417 254.038 64.4417 252.038 63.4417Z" fill="#024449" stroke="#024449" stroke-width="0.5"/>
<mask id="path-13-inside-1_7_2" fill="white">
<path fill-rule="evenodd" clip-rule="evenodd" d="M122.538 201.942C158.436 201.942 187.538 156.946 187.538 101.442C187.538 45.9371 158.436 0.941727 122.538 0.941727C86.6392 0.941727 57.5377 45.9371 57.5377 101.442C57.5377 156.946 86.6392 201.942 122.538 201.942ZM114.538 158.942C136.077 158.942 153.538 132.303 153.538 99.4417C153.538 66.5808 136.077 39.9417 114.538 39.9417C92.9986 39.9417 75.5377 66.5808 75.5377 99.4417C75.5377 132.303 92.9986 158.942 114.538 158.942Z"/>
</mask>
<path fill-rule="evenodd" clip-rule="evenodd" d="M122.538 201.942C158.436 201.942 187.538 156.946 187.538 101.442C187.538 45.9371 158.436 0.941727 122.538 0.941727C86.6392 0.941727 57.5377 45.9371 57.5377 101.442C57.5377 156.946 86.6392 201.942 122.538 201.942ZM114.538 158.942C136.077 158.942 153.538 132.303 153.538 99.4417C153.538 66.5808 136.077 39.9417 114.538 39.9417C92.9986 39.9417 75.5377 66.5808 75.5377 99.4417C75.5377 132.303 92.9986 158.942 114.538 158.942Z" fill="#024449"/>
<path d="M187.038 101.442C187.038 129.112 179.783 154.14 168.08 172.234C156.374 190.334 140.261 201.442 122.538 201.442V202.442C140.713 202.442 157.1 191.052 168.92 172.777C180.742 154.498 188.038 129.276 188.038 101.442H187.038ZM122.538 1.44173C140.261 1.44173 156.374 12.5493 168.08 30.649C179.783 48.7438 187.038 73.7714 187.038 101.442H188.038C188.038 73.6075 180.742 48.3851 168.92 30.106C157.1 11.8319 140.713 0.441727 122.538 0.441727V1.44173ZM58.0377 101.442C58.0377 73.7714 65.2926 48.7438 76.9956 30.649C88.7019 12.5493 104.815 1.44173 122.538 1.44173V0.441727C104.362 0.441727 87.975 11.8319 76.1559 30.106C64.3336 48.3851 57.0377 73.6075 57.0377 101.442H58.0377ZM122.538 201.442C104.815 201.442 88.7019 190.334 76.9956 172.234C65.2926 154.14 58.0377 129.112 58.0377 101.442H57.0377C57.0377 129.276 64.3336 154.498 76.1559 172.777C87.975 191.052 104.362 202.442 122.538 202.442V201.442ZM153.038 99.4417C153.038 115.789 148.694 130.566 141.697 141.24C134.697 151.92 125.084 158.442 114.538 158.442V159.442C125.53 159.442 135.418 152.644 142.533 141.789C149.651 130.929 154.038 115.955 154.038 99.4417H153.038ZM114.538 40.4417C125.084 40.4417 134.697 46.9638 141.697 57.643C148.694 68.3178 153.038 83.0945 153.038 99.4417H154.038C154.038 82.928 149.651 67.9547 142.533 57.0948C135.418 46.2392 125.53 39.4417 114.538 39.4417V40.4417ZM76.0377 99.4417C76.0377 83.0945 80.3818 68.3178 87.3787 57.643C94.3785 46.9638 103.991 40.4417 114.538 40.4417V39.4417C103.545 39.4417 93.6578 46.2392 86.5424 57.0948C79.4241 67.9547 75.0377 82.928 75.0377 99.4417H76.0377ZM114.538 158.442C103.991 158.442 94.3785 151.92 87.3787 141.24C80.3818 130.566 76.0377 115.789 76.0377 99.4417H75.0377C75.0377 115.955 79.4241 130.929 86.5424 141.789C93.6578 152.644 103.545 159.442 114.538 159.442V158.442Z" fill="#024449" mask="url(#path-13-inside-1_7_2)"/>
<path d="M105.038 78.9417L116.538 40.4417V39.4417H118.038L126.538 79.9417L152.038 80.9417L153.538 87.9417L132.038 106.442L140.038 144.942L138.038 147.442L114.038 122.442L88.5377 144.942L86.5377 141.942L98.0377 105.442L76.5377 84.4417L78.0377 77.9417L105.038 78.9417Z" fill="#024449" stroke="#024449" stroke-width="0.5"/>
<path d="M1.53772 170.442L40.5377 153.942L68.0377 167.442C75.2377 183.442 89.3711 194.442 95.5377 197.942L1.53772 170.442Z" fill="#024449" stroke="#024449" stroke-width="0.5"/>
</svg>
