<svg width="20" height="20" viewBox="0 0 20 20" fill="none" xmlns="http://www.w3.org/2000/svg">
<g id="mic">
<mask id="mask0_1288_3204" style="mask-type:alpha" maskUnits="userSpaceOnUse" x="0" y="0" width="20" height="20">
<rect id="Bounding box" width="20" height="20" fill="#D9D9D9"/>
</mask>
<g mask="url(#mask0_1288_3204)">
<path id="mic_2" d="M9.99992 11.25C9.4177 11.25 8.92492 11.0483 8.52159 10.645C8.11825 10.2416 7.91659 9.74887 7.91659 9.16665V4.16665C7.91659 3.58442 8.11825 3.09165 8.52159 2.68831C8.92492 2.28498 9.4177 2.08331 9.99992 2.08331C10.5821 2.08331 11.0749 2.28498 11.4783 2.68831C11.8816 3.09165 12.0833 3.58442 12.0833 4.16665V9.16665C12.0833 9.74887 11.8816 10.2416 11.4783 10.645C11.0749 11.0483 10.5821 11.25 9.99992 11.25ZM9.37492 17.2916V14.5448C7.99992 14.3877 6.85756 13.798 5.94784 12.7756C5.03811 11.7531 4.58325 10.5501 4.58325 9.16665H5.83325C5.83325 10.3194 6.2395 11.3021 7.052 12.1146C7.8645 12.9271 8.84714 13.3333 9.99992 13.3333C11.1527 13.3333 12.1353 12.9271 12.9478 12.1146C13.7603 11.3021 14.1666 10.3194 14.1666 9.16665H15.4166C15.4166 10.5501 14.9617 11.7531 14.052 12.7756C13.1423 13.798 11.9999 14.3877 10.6249 14.5448V17.2916H9.37492Z" fill="#024449"/>
</g>
</g>
</svg>
