<svg width="20" height="20" viewBox="0 0 20 20" fill="none" xmlns="http://www.w3.org/2000/svg">
<g id="Style=Filled">
<mask id="mask0_194_875" style="mask-type:alpha" maskUnits="userSpaceOnUse" x="0" y="0" width="20" height="20">
<rect id="Bounding box" width="20" height="20" fill="#D9D9D9"/>
</mask>
<g mask="url(#mask0_194_875)">
<path id="payments" d="M3.045 16.0898C2.6307 16.0898 2.27604 15.9423 1.98104 15.6473C1.68604 15.3523 1.53854 14.9976 1.53854 14.5833V6.33021H2.78854V14.5833C2.78854 14.6474 2.81521 14.7061 2.86854 14.7596C2.92202 14.8131 2.98084 14.8398 3.045 14.8398H15.9775V16.0898H3.045ZM5.96146 13.1731C5.54729 13.1731 5.19271 13.0256 4.89771 12.7306C4.60271 12.4356 4.45521 12.081 4.45521 11.6667V5.3525C4.45521 4.93834 4.60271 4.58375 4.89771 4.28875C5.19271 3.99375 5.54729 3.84625 5.96146 3.84625H16.955C17.3693 3.84625 17.724 3.99375 18.019 4.28875C18.314 4.58375 18.4615 4.93834 18.4615 5.3525V11.6667C18.4615 12.081 18.314 12.4356 18.019 12.7306C17.724 13.0256 17.3693 13.1731 16.955 13.1731H5.96146ZM7.21146 11.9231C7.21146 11.5076 7.06396 11.1526 6.76896 10.8581C6.47396 10.5638 6.11938 10.4167 5.70521 10.4167V11.6667C5.70521 11.7361 5.73056 11.7962 5.78125 11.8469C5.83195 11.8977 5.89202 11.9231 5.96146 11.9231H7.21146ZM15.7052 11.9231H16.955C17.0244 11.9231 17.0846 11.8977 17.1354 11.8469C17.1861 11.7962 17.2115 11.7361 17.2115 11.6667V10.4167C16.7959 10.4167 16.441 10.5642 16.1467 10.8592C15.8524 11.1542 15.7052 11.5088 15.7052 11.9231ZM11.4583 10.5929C12.0406 10.5929 12.5333 10.3913 12.9367 9.98792C13.34 9.58459 13.5417 9.09181 13.5417 8.50959C13.5417 7.92736 13.34 7.43459 12.9367 7.03125C12.5333 6.62792 12.0406 6.42625 11.4583 6.42625C10.8761 6.42625 10.3833 6.62792 9.98 7.03125C9.57667 7.43459 9.375 7.92736 9.375 8.50959C9.375 9.09181 9.57667 9.58459 9.98 9.98792C10.3833 10.3913 10.8761 10.5929 11.4583 10.5929ZM5.70521 6.6025C6.12077 6.6025 6.4757 6.455 6.77 6.16C7.06431 5.865 7.21146 5.51042 7.21146 5.09625H5.96146C5.89202 5.09625 5.83195 5.1216 5.78125 5.17229C5.73056 5.22299 5.70521 5.28306 5.70521 5.3525V6.6025ZM17.2115 6.6025V5.3525C17.2115 5.28306 17.1861 5.22299 17.1354 5.17229C17.0846 5.1216 17.0244 5.09625 16.955 5.09625H15.7052C15.7052 5.51181 15.8527 5.86674 16.1477 6.16104C16.4427 6.45535 16.7973 6.6025 17.2115 6.6025Z" fill="black"/>
</g>
</g>
</svg>
