<svg width="14" height="14" viewBox="0 0 14 14" fill="none" xmlns="http://www.w3.org/2000/svg">
<g id="my_location">
<mask id="mask0_3369_1961" style="mask-type:alpha" maskUnits="userSpaceOnUse" x="0" y="0" width="14" height="14">
<rect id="Bounding box" width="14" height="14" fill="#D9D9D9"/>
</mask>
<g mask="url(#mask0_3369_1961)">
<path id="my_location_2" d="M6.56249 12.95V11.9404C5.34721 11.8155 4.32414 11.3376 3.49328 10.5068C2.66242 9.6759 2.18452 8.65283 2.05959 7.43755H1.04999V6.56255H2.05959C2.18452 5.34727 2.66242 4.3242 3.49328 3.49334C4.32414 2.66248 5.34721 2.18458 6.56249 2.05965V1.05005H7.43749V2.05965C8.65277 2.18458 9.67583 2.66248 10.5067 3.49334C11.3376 4.3242 11.8155 5.34727 11.9404 6.56255H12.95V7.43755H11.9404C11.8155 8.65283 11.3376 9.6759 10.5067 10.5068C9.67583 11.3376 8.65277 11.8155 7.43749 11.9404V12.95H6.56249ZM6.99999 11.0834C8.12777 11.0834 9.09027 10.6848 9.88749 9.88755C10.6847 9.09033 11.0833 8.12783 11.0833 7.00005C11.0833 5.87227 10.6847 4.90977 9.88749 4.11255C9.09027 3.31533 8.12777 2.91672 6.99999 2.91672C5.87221 2.91672 4.90971 3.31533 4.11249 4.11255C3.31527 4.90977 2.91665 5.87227 2.91665 7.00005C2.91665 8.12783 3.31527 9.09033 4.11249 9.88755C4.90971 10.6848 5.87221 11.0834 6.99999 11.0834ZM6.99999 9.04172C6.43853 9.04172 5.95791 8.84178 5.55813 8.4419C5.15826 8.04213 4.95832 7.56151 4.95832 7.00005C4.95832 6.43859 5.15826 5.95797 5.55813 5.55819C5.95791 5.15832 6.43853 4.95838 6.99999 4.95838C7.56145 4.95838 8.04206 5.15832 8.44184 5.55819C8.84172 5.95797 9.04165 6.43859 9.04165 7.00005C9.04165 7.56151 8.84172 8.04213 8.44184 8.4419C8.04206 8.84178 7.56145 9.04172 6.99999 9.04172Z" fill="white"/>
</g>
</g>
</svg>
