<svg width="22" height="22" viewBox="0 0 22 22" fill="none" xmlns="http://www.w3.org/2000/svg">
<g id="nest_clock_farsight_analog">
<mask id="mask0_3200_6538" style="mask-type:alpha" maskUnits="userSpaceOnUse" x="0" y="0" width="22" height="22">
<rect id="Bounding box" width="22" height="22" fill="#D9D9D9"/>
</mask>
<g mask="url(#mask0_3200_6538)">
<path id="nest_clock_farsight_analog_2" d="M13.5136 15.0209L14.4708 14.0408L11.6873 11.2573V7.29803H10.3123V11.8197L13.5136 15.0209ZM10.3123 5.49999H11.6873V3.66666H10.3123V5.49999ZM16.4998 11.6875H18.3332V10.3125H16.4998V11.6875ZM10.3123 18.3333H11.6873V16.5H10.3123V18.3333ZM3.6665 11.6875H5.49984V10.3125H3.6665V11.6875ZM11.0014 19.7083C9.79694 19.7083 8.66478 19.4798 7.60496 19.0227C6.54514 18.5655 5.62328 17.9452 4.83938 17.1616C4.05548 16.378 3.43482 15.4565 2.9774 14.3972C2.52014 13.3378 2.2915 12.2059 2.2915 11.0016C2.2915 9.79709 2.52006 8.66493 2.97717 7.60511C3.43428 6.54529 4.05464 5.62343 4.83823 4.83953C5.62183 4.05563 6.54331 3.43497 7.60267 2.97755C8.66203 2.52029 9.79389 2.29166 10.9982 2.29166C12.2027 2.29166 13.3349 2.52021 14.3947 2.97732C15.4545 3.43443 16.3764 4.05479 17.1603 4.83839C17.9442 5.62198 18.5649 6.54346 19.0223 7.60282C19.4795 8.66218 19.7082 9.79404 19.7082 10.9984C19.7082 12.2029 19.4796 13.335 19.0225 14.3949C18.5654 15.4547 17.945 16.3765 17.1614 17.1604C16.3778 17.9444 15.4564 18.565 14.397 19.0224C13.3376 19.4797 12.2058 19.7083 11.0014 19.7083Z" fill="white"/>
</g>
</g>
</svg>
