<svg width="20" height="20" viewBox="0 0 20 20" fill="none" xmlns="http://www.w3.org/2000/svg">
<g id="Status=Unread">
<mask id="mask0_47_362" style="mask-type:alpha" maskUnits="userSpaceOnUse" x="0" y="0" width="20" height="20">
<rect id="Bounding box" width="20" height="20" fill="#D9D9D9"/>
</mask>
<g mask="url(#mask0_47_362)">
<g id="notifications_unread">
<path fill-rule="evenodd" clip-rule="evenodd" d="M9.04979 17.35C9.30938 17.6124 9.62417 17.7435 9.99417 17.7435C10.3642 17.7435 10.6809 17.6138 10.9444 17.3542C11.208 17.0946 11.3398 16.7778 11.3398 16.4038H8.66021C8.66021 16.7722 8.79007 17.0876 9.04979 17.35ZM4.41667 14.3206V15.4038H15.5833V14.3154H14.7435V9.7998C14.5684 9.83285 14.3884 9.85445 14.2035 9.86459C14.0187 9.87473 13.8376 9.86646 13.6602 9.8398V14.3206H6.33979V8.93584C6.33979 7.91556 6.69472 7.05049 7.40458 6.34063C8.11458 5.63063 8.97972 5.27563 10 5.27563C10.0349 5.27563 10.0723 5.27577 10.1123 5.27605L10.2356 5.2773C10.2676 4.97494 10.334 4.6891 10.435 4.4198C10.536 4.15063 10.6549 3.89959 10.7917 3.66667V3.20834C10.7917 2.98848 10.7144 2.80153 10.56 2.64751C10.4057 2.49362 10.2187 2.41667 9.99896 2.41667C9.77938 2.41667 9.59271 2.49362 9.43896 2.64751C9.28521 2.80153 9.20833 2.98848 9.20833 3.20834V4.24834C8.05445 4.4332 7.10736 4.9666 6.36708 5.84855C5.62667 6.73049 5.25646 7.75959 5.25646 8.93584V14.3206H4.41667Z" fill="black"/>
<path d="M14.0681 8.16834C13.4319 8.16834 12.8908 7.94563 12.4448 7.50021C11.9987 7.0548 11.7756 6.51389 11.7756 5.87751C11.7756 5.24126 11.9983 4.70007 12.4438 4.25396C12.8892 3.80799 13.43 3.58501 14.0663 3.58501C14.7026 3.58501 15.2438 3.80771 15.6898 4.25313C16.1359 4.69855 16.359 5.23938 16.359 5.87563C16.359 6.51202 16.1363 7.0532 15.6908 7.49917C15.2454 7.94528 14.7045 8.16834 14.0681 8.16834Z" fill="#E10E0E"/>
</g>
</g>
</g>
</svg>
