<svg width="22" height="22" viewBox="0 0 22 22" fill="none" xmlns="http://www.w3.org/2000/svg">
<g id="notifications_active">
<mask id="mask0_4058_8107" style="mask-type:alpha" maskUnits="userSpaceOnUse" x="0" y="0" width="22" height="22">
<rect id="Bounding box" width="22" height="22" fill="#D9D9D9"/>
</mask>
<g mask="url(#mask0_4058_8107)">
<path id="notifications_active_2" d="M4.12492 17.3107V15.9359H5.78202V9.09597C5.78202 7.8632 6.16252 6.77321 6.9235 5.82599C7.68434 4.87876 8.6612 4.27292 9.85409 4.00847V3.43738C9.85409 3.12006 9.96577 2.8498 10.1891 2.62659C10.4123 2.40323 10.6826 2.29155 10.9999 2.29155C11.3172 2.29155 11.5875 2.40323 11.8107 2.62659C12.0341 2.8498 12.1458 3.12006 12.1458 3.43738V4.00847C13.3386 4.27292 14.3155 4.87876 15.0763 5.82599C15.8373 6.77321 16.2178 7.8632 16.2178 9.09597V15.9359H17.8749V17.3107H4.12492ZM10.9999 19.8844C10.5428 19.8844 10.1524 19.7226 9.82865 19.3988C9.50476 19.0751 9.34282 18.6846 9.34282 18.2273H12.657C12.657 18.6846 12.4951 19.0751 12.1712 19.3988C11.8475 19.7226 11.457 19.8844 10.9999 19.8844ZM2.39746 9.08726C2.39746 7.65344 2.71677 6.33688 3.35538 5.13757C3.99414 3.93826 4.85123 2.94498 5.92663 2.15771L6.73032 3.26276C5.83137 3.92337 5.11362 4.75807 4.57707 5.76686C4.04066 6.77581 3.77246 7.8826 3.77246 9.08726H2.39746ZM18.2274 9.08726C18.2274 7.8826 17.9592 6.77581 17.4228 5.76686C16.8862 4.75807 16.1685 3.92337 15.2695 3.26276L16.0732 2.15771C17.1486 2.94498 18.0057 3.93826 18.6445 5.13757C19.2831 6.33688 19.6024 7.65344 19.6024 9.08726H18.2274Z" fill="white"/>
</g>
</g>
</svg>
