<svg width="20" height="20" viewBox="0 0 20 20" fill="none" xmlns="http://www.w3.org/2000/svg">
<g id="Status=Default">
<mask id="mask0_47_363" style="mask-type:alpha" maskUnits="userSpaceOnUse" x="0" y="0" width="20" height="20">
<rect id="Bounding box" width="20" height="20" fill="#D9D9D9"/>
</mask>
<g mask="url(#mask0_47_363)">
<path id="notifications" d="M4.41667 15.4038V14.3206H5.25646V8.93584C5.25646 7.75959 5.62667 6.73049 6.36708 5.84855C7.10736 4.9666 8.05444 4.4332 9.20833 4.24834V3.20834C9.20833 2.98848 9.28521 2.80153 9.43896 2.64751C9.59271 2.49362 9.77937 2.41667 9.99896 2.41667C10.2187 2.41667 10.4057 2.49362 10.56 2.64751C10.7144 2.80153 10.7917 2.98848 10.7917 3.20834V4.24834C11.9456 4.4332 12.8926 4.9666 13.6329 5.84855C14.3733 6.73049 14.7435 7.75959 14.7435 8.93584V14.3206H15.5833V15.4038H4.41667ZM9.99417 17.7435C9.62417 17.7435 9.30937 17.6124 9.04979 17.35C8.79007 17.0876 8.66021 16.7722 8.66021 16.4038H11.3398C11.3398 16.7778 11.208 17.0946 10.9444 17.3542C10.6809 17.6138 10.3642 17.7435 9.99417 17.7435ZM6.33979 14.3206H13.6602V8.93584C13.6602 7.91556 13.3053 7.05049 12.5954 6.34063C11.8854 5.63063 11.0203 5.27563 10 5.27563C8.97972 5.27563 8.11458 5.63063 7.40458 6.34063C6.69472 7.05049 6.33979 7.91556 6.33979 8.93584V14.3206Z" fill="black"/>
</g>
</g>
</svg>
