<svg width="24" height="25" viewBox="0 0 24 25" fill="none" xmlns="http://www.w3.org/2000/svg">
<g id="business_center">
<mask id="mask0_5787_830" style="mask-type:alpha" maskUnits="userSpaceOnUse" x="0" y="0" width="24" height="25">
<rect id="Bounding box" y="0.213074" width="24" height="24" fill="#D9D9D9"/>
</mask>
<g mask="url(#mask0_5787_830)">
<path id="business_center_2" d="M4.30775 20.7131C3.80258 20.7131 3.375 20.5381 3.025 20.1881C2.675 19.8381 2.5 19.4105 2.5 18.9053V14.9631H9.5V16.7131H14.5V14.9631H21.5V18.9053C21.5 19.4105 21.325 19.8381 20.975 20.1881C20.625 20.5381 20.1974 20.7131 19.6923 20.7131H4.30775ZM11 15.2131V13.2131H13V15.2131H11ZM2.5 13.4631V8.52082C2.5 8.01566 2.675 7.58807 3.025 7.23807C3.375 6.88807 3.80258 6.71307 4.30775 6.71307H8.5V5.02082C8.5 4.51566 8.675 4.08807 9.025 3.73807C9.375 3.38807 9.80258 3.21307 10.3078 3.21307H13.6923C14.1974 3.21307 14.625 3.38807 14.975 3.73807C15.325 4.08807 15.5 4.51566 15.5 5.02082V6.71307H19.6923C20.1974 6.71307 20.625 6.88807 20.975 7.23807C21.325 7.58807 21.5 8.01566 21.5 8.52082V13.4631H14.5V11.7131H9.5V13.4631H2.5ZM10 6.71307H14V5.02082C14 4.94382 13.9679 4.87332 13.9038 4.80932C13.8398 4.74516 13.7693 4.71307 13.6923 4.71307H10.3078C10.2308 4.71307 10.1603 4.74516 10.0963 4.80932C10.0321 4.87332 10 4.94382 10 5.02082V6.71307Z" fill="#024449"/>
</g>
</g>
</svg>
