<svg width="22" height="22" viewBox="0 0 22 22" fill="none" xmlns="http://www.w3.org/2000/svg">
<g id="person">
<mask id="mask0_3200_3890" style="mask-type:alpha" maskUnits="userSpaceOnUse" x="0" y="0" width="22" height="22">
<rect id="Bounding box" width="22" height="22" fill="#D9D9D9"/>
</mask>
<g mask="url(#mask0_3200_3890)">
<path id="person_2" d="M11 10.7179C10.1177 10.7179 9.36245 10.4038 8.73423 9.77557C8.10585 9.1472 7.79167 8.39186 7.79167 7.50957C7.79167 6.62728 8.10585 5.87202 8.73423 5.2438C9.36245 4.61543 10.1177 4.30124 11 4.30124C11.8823 4.30124 12.6375 4.61543 13.2658 5.2438C13.8941 5.87202 14.2083 6.62728 14.2083 7.50957C14.2083 8.39186 13.8941 9.1472 13.2658 9.77557C12.6375 10.4038 11.8823 10.7179 11 10.7179ZM4.125 17.6988V15.6608C4.125 15.2119 4.24692 14.7962 4.49075 14.4137C4.73458 14.0311 5.06046 13.737 5.46837 13.5314C6.37435 13.0873 7.28834 12.7541 8.21035 12.532C9.13237 12.3099 10.0623 12.1988 11 12.1988C11.9378 12.1988 12.8676 12.3099 13.7896 12.532C14.7117 12.7541 15.6257 13.0873 16.5316 13.5314C16.9395 13.737 17.2654 14.0311 17.5093 14.4137C17.7531 14.7962 17.875 15.2119 17.875 15.6608V17.6988H4.125ZM5.5 16.3238H16.5V15.6608C16.5 15.4752 16.4462 15.3033 16.3387 15.1452C16.2311 14.9872 16.0851 14.8583 15.9007 14.7583C15.1109 14.3694 14.3056 14.0747 13.4849 13.8742C12.664 13.6739 11.8357 13.5738 11 13.5738C10.1643 13.5738 9.33602 13.6739 8.51515 13.8742C7.69442 14.0747 6.88913 14.3694 6.09927 14.7583C5.91487 14.8583 5.76889 14.9872 5.66133 15.1452C5.55378 15.3033 5.5 15.4752 5.5 15.6608V16.3238ZM11 9.34291C11.5042 9.34291 11.9358 9.16339 12.2948 8.80436C12.6538 8.44534 12.8333 8.01374 12.8333 7.50957C12.8333 7.00541 12.6538 6.57381 12.2948 6.21478C11.9358 5.85575 11.5042 5.67624 11 5.67624C10.4958 5.67624 10.0642 5.85575 9.70521 6.21478C9.34618 6.57381 9.16667 7.00541 9.16667 7.50957C9.16667 8.01374 9.34618 8.44534 9.70521 8.80436C10.0642 9.16339 10.4958 9.34291 11 9.34291Z" fill="white"/>
</g>
</g>
</svg>
