<svg width="20" height="20" viewBox="0 0 20 20" fill="none" xmlns="http://www.w3.org/2000/svg">
<g id="photo_camera_back">
<mask id="mask0_1288_3205" style="mask-type:alpha" maskUnits="userSpaceOnUse" x="0" y="0" width="20" height="20">
<rect id="Bounding box" width="20" height="20" fill="#D9D9D9"/>
</mask>
<g mask="url(#mask0_1288_3205)">
<path id="photo_camera_back_2" d="M3.58971 17.0834C3.16874 17.0834 2.81242 16.9375 2.52075 16.6459C2.22909 16.3542 2.08325 15.9979 2.08325 15.5769V6.08981C2.08325 5.66884 2.22909 5.31252 2.52075 5.02085C2.81242 4.72919 3.16874 4.58335 3.58971 4.58335H6.1345L7.67617 2.91669H12.3237L13.8653 4.58335H16.4101C16.8311 4.58335 17.1874 4.72919 17.4791 5.02085C17.7708 5.31252 17.9166 5.66884 17.9166 6.08981V15.5769C17.9166 15.9979 17.7708 16.3542 17.4791 16.6459C17.1874 16.9375 16.8311 17.0834 16.4101 17.0834H3.58971ZM5.62492 14.0065H14.4389L11.6987 10.3525L9.35888 13.3975L7.69221 11.2661L5.62492 14.0065Z" fill="#024449"/>
</g>
</g>
</svg>
