<svg width="24" height="24" viewBox="0 0 24 24" fill="none" xmlns="http://www.w3.org/2000/svg">
<g id="upload_file">
<mask id="mask0_4208_7705" style="mask-type:alpha" maskUnits="userSpaceOnUse" x="0" y="0" width="24" height="24">
<rect id="Bounding box" width="24" height="24" fill="#D9D9D9"/>
</mask>
<g mask="url(#mask0_4208_7705)">
<path id="upload_file_2" d="M11.25 18.3845H12.75V13.95L14.6 15.8L15.6538 14.7308L12 11.077L8.34625 14.7308L9.4155 15.7845L11.25 13.95V18.3845ZM6.30775 21.5C5.80258 21.5 5.375 21.325 5.025 20.975C4.675 20.625 4.5 20.1974 4.5 19.6923V4.30775C4.5 3.80258 4.675 3.375 5.025 3.025C5.375 2.675 5.80258 2.5 6.30775 2.5H14.25L19.5 7.75V19.6923C19.5 20.1974 19.325 20.625 18.975 20.975C18.625 21.325 18.1974 21.5 17.6923 21.5H6.30775ZM13.5 8.5H18L13.5 4V8.5Z" fill="#024449"/>
</g>
</g>
</svg>
